<svg width="266" height="272" viewBox="0 0 266 272" fill="none" xmlns="http://www.w3.org/2000/svg">
<g clip-path="url(#clip0_156_2334)">
<path d="M132.626 100.919C122.115 100.919 113.578 93.9924 113.578 85.4595C113.578 76.9265 122.133 70 132.626 70C143.12 70 151.675 76.9265 151.675 85.4595C151.675 93.9924 143.12 100.919 132.626 100.919ZM132.626 75.1819C124.99 75.1819 118.773 79.7939 118.773 85.4595C118.773 91.125 124.99 95.737 132.626 95.737C140.263 95.737 146.48 91.125 146.48 85.4595C146.48 79.7939 140.263 75.1819 132.626 75.1819Z" fill="white"/>
<path d="M132.612 200.395C109.269 200.395 91 188.787 91 173.967C91 155.623 107.278 149.163 123.746 144.534C111.451 140.837 101.026 135.655 100.922 123.65C100.888 120.161 102.567 116.62 105.754 113.425C111.884 107.258 122.43 103.268 132.612 103.268C148.578 103.268 163.972 113.131 164.301 123.564C164.665 135.206 155.054 140.613 143.261 144.464C159.089 148.973 174.189 155.606 174.223 173.915C174.466 177.974 172.596 182.241 168.821 186.265C160.872 194.729 146.326 200.429 132.612 200.429V200.395ZM133.633 147.211C132.923 147.401 132.213 147.591 131.486 147.781C114.135 152.41 96.1777 157.195 96.1777 173.95C96.1777 185.471 112.854 195.196 132.594 195.196C144.768 195.196 158.102 190.048 165.011 182.673C167.816 179.684 169.202 176.731 169.011 174.105V173.932C169.011 156.348 151.019 151.702 133.599 147.194L133.633 147.211ZM132.612 108.415C123.884 108.415 114.568 111.887 109.442 117.035C107.918 118.572 106.1 120.956 106.117 123.581C106.204 134.429 118.758 137.987 133.599 141.839C149.772 137.4 159.418 133.513 159.123 123.685C158.916 116.81 146.638 108.415 132.629 108.415H132.612Z" fill="white"/>
<path d="M137.803 248.336C131.361 248.336 126.148 253.535 126.148 259.961C126.148 266.386 131.361 271.585 137.803 271.585V248.353V248.336Z" fill="white"/>
<path d="M137.806 272C131.139 272 125.719 266.594 125.719 259.943C125.719 253.293 131.139 247.887 137.806 247.887C138.048 247.887 138.239 248.077 138.239 248.319V271.568C138.239 271.81 138.048 272 137.806 272V272ZM137.373 248.768C131.381 248.992 126.585 253.915 126.585 259.943C126.585 265.972 131.381 270.895 137.373 271.119V248.75V248.768Z" fill="white"/>
<path d="M126.961 23.6815C133.403 23.6815 138.615 18.4823 138.615 12.0567C138.615 5.6311 133.403 0.431885 126.961 0.431885V23.6815Z" fill="white"/>
<path d="M126.964 24.1133C126.722 24.1133 126.531 23.9233 126.531 23.6815V0.431828C126.531 0.190004 126.722 0 126.964 0C133.631 0 139.051 5.40649 139.051 12.0566C139.051 18.7068 133.631 24.1133 126.964 24.1133ZM127.397 0.88093V23.2324C133.389 23.0078 138.185 18.085 138.185 12.0566C138.185 6.02832 133.389 1.10548 127.397 0.88093V0.88093Z" fill="white"/>
<path d="M8.84087 145.181C4.32125 145.181 0.632812 141.519 0.632812 136.993C0.632812 132.468 4.30393 128.806 8.84087 128.806C13.3778 128.806 17.0489 132.468 17.0489 136.993C17.0489 141.519 13.3778 145.181 8.84087 145.181V145.181ZM8.84087 130.723C5.36024 130.723 2.53764 133.539 2.53764 137.01C2.53764 140.482 5.36024 143.298 8.84087 143.298C12.3215 143.298 15.1441 140.482 15.1441 137.01C15.1441 133.539 12.3215 130.723 8.84087 130.723V130.723Z" fill="white"/>
<path d="M8.8441 145.612C4.08204 145.612 0.203125 141.743 0.203125 136.993C0.203125 132.243 4.08204 128.374 8.8441 128.374C13.6062 128.374 17.4851 132.243 17.4851 136.993C17.4851 141.743 13.6062 145.612 8.8441 145.612V145.612ZM8.8441 129.255C4.5669 129.255 1.06895 132.727 1.06895 137.01C1.06895 141.294 4.54959 144.766 8.8441 144.766C13.1386 144.766 16.6192 141.294 16.6192 137.01C16.6192 132.727 13.1386 129.255 8.8441 129.255V129.255ZM8.8441 143.712C5.13835 143.712 2.10795 140.707 2.10795 136.993C2.10795 133.279 5.12103 130.274 8.8441 130.274C12.5672 130.274 15.5802 133.279 15.5802 136.993C15.5802 140.707 12.5672 143.712 8.8441 143.712V143.712ZM8.8441 131.138C5.6059 131.138 2.97378 133.763 2.97378 136.993C2.97378 140.223 5.6059 142.849 8.8441 142.849C12.0823 142.849 14.7144 140.223 14.7144 136.993C14.7144 133.763 12.0823 131.138 8.8441 131.138V131.138Z" fill="white"/>
<path d="M258.099 143.246C262.107 143.246 265.355 140.006 265.355 136.009C265.355 132.012 262.107 128.771 258.099 128.771C254.092 128.771 250.844 132.012 250.844 136.009C250.844 140.006 254.092 143.246 258.099 143.246Z" fill="white"/>
<path d="M258.103 143.661C253.86 143.661 250.414 140.223 250.414 135.991C250.414 131.76 253.86 128.322 258.103 128.322C262.345 128.322 265.791 131.76 265.791 135.991C265.791 140.223 262.345 143.661 258.103 143.661ZM258.103 129.203C254.345 129.203 251.28 132.26 251.28 136.009C251.28 139.757 254.345 142.814 258.103 142.814C261.86 142.814 264.925 139.757 264.925 136.009C264.925 132.26 261.86 129.203 258.103 129.203Z" fill="white"/>
<path d="M0.860929 99.1498L0.65625 100.078L23.4029 105.07L23.6075 104.143L0.860929 99.1498Z" fill="white"/>
<path d="M23.4089 105.729C23.4089 105.729 23.3223 105.729 23.2704 105.729L0.499077 100.72C0.152745 100.651 -0.0723701 100.305 -0.00310382 99.9424L0.204695 99.0096C0.239328 98.8369 0.343228 98.6987 0.481761 98.5951C0.620293 98.5087 0.810776 98.4742 0.966625 98.5087L23.7206 103.501C24.0669 103.57 24.2921 103.915 24.2228 104.278L24.015 105.211C23.9804 105.383 23.8765 105.522 23.7379 105.625C23.634 105.694 23.5128 105.729 23.3916 105.729H23.4089Z" fill="white"/>
<path d="M15.5863 66.3604L15.1484 67.2041L35.8474 77.8928L36.2852 77.0491L15.5863 66.3604Z" fill="white"/>
<path d="M35.8402 78.541C35.7363 78.541 35.6324 78.5237 35.5458 78.4719L14.8525 67.7971C14.5408 67.6417 14.4023 67.2444 14.5754 66.9335L15.0084 66.0871C15.0949 65.9316 15.2162 65.8107 15.3893 65.7589C15.5625 65.7071 15.7356 65.7243 15.8915 65.7934L36.5848 76.4682C36.8965 76.6237 37.035 77.021 36.8619 77.3319L36.429 78.1783C36.3424 78.3337 36.2212 78.4546 36.048 78.5065C35.9787 78.5237 35.9095 78.541 35.8575 78.541H35.8402Z" fill="white"/>
<path d="M35.8834 39.6232L35.2422 40.3257L52.4633 55.9674L53.1045 55.2649L35.8834 39.6232Z" fill="white"/>
<path d="M52.4801 56.6213C52.3242 56.6213 52.1684 56.5695 52.0472 56.4486L34.8172 40.7991C34.696 40.6782 34.6094 40.5228 34.6094 40.35C34.6094 40.1773 34.6613 40.0046 34.7825 39.8837L35.4233 39.1755C35.6657 38.9164 36.0813 38.8991 36.341 39.1409L53.571 54.7904C53.6922 54.9113 53.7788 55.0668 53.7788 55.2395C53.7788 55.4122 53.7269 55.5849 53.6057 55.7059L52.965 56.4141C52.8437 56.5522 52.6533 56.6213 52.4801 56.6213V56.6213Z" fill="white"/>
<path d="M63.9262 18.6836L63.125 19.1973L75.7273 38.7555L76.5284 38.2418L63.9262 18.6836Z" fill="white"/>
<path d="M75.7211 39.4001C75.7211 39.4001 75.6345 39.4001 75.5825 39.4001C75.4094 39.3656 75.2708 39.2619 75.1669 39.1237L62.5778 19.5706C62.3873 19.2769 62.4739 18.8624 62.7683 18.6724L63.5648 18.1542C63.7034 18.0678 63.8939 18.0333 64.0497 18.0678C64.2056 18.1023 64.3614 18.206 64.4653 18.3442L77.0545 37.8974C77.2449 38.191 77.1584 38.6056 76.864 38.7956L76.0674 39.3138C75.9635 39.3828 75.8423 39.4174 75.7211 39.4174V39.4001Z" fill="white"/>
<path d="M96.7585 4.67417L95.8516 4.96411L102.96 27.088L103.867 26.7981L96.7585 4.67417Z" fill="white"/>
<path d="M102.958 27.758C102.681 27.758 102.421 27.5852 102.335 27.3089L95.2177 5.18199C95.1658 5.02653 95.1831 4.83653 95.2523 4.68107C95.3389 4.52561 95.4601 4.4047 95.6333 4.35288L96.5338 4.05924C96.8801 3.9556 97.2437 4.1456 97.3476 4.47379L104.465 26.6007C104.517 26.7561 104.499 26.9461 104.43 27.1016C104.344 27.2571 104.222 27.378 104.049 27.4298L103.149 27.7234C103.149 27.7234 103.01 27.758 102.958 27.758Z" fill="white"/>
<path d="M242.572 166.871L242.367 167.799L265.114 172.792L265.318 171.864L242.572 166.871Z" fill="white"/>
<path d="M265.145 173.457C265.145 173.457 265.059 173.457 265.007 173.457L242.253 168.465C242.08 168.43 241.941 168.327 241.837 168.188C241.733 168.05 241.716 167.86 241.751 167.705L241.958 166.772C242.028 166.427 242.391 166.202 242.738 166.271L265.492 171.263C265.665 171.298 265.803 171.401 265.907 171.539C266.011 171.678 266.028 171.868 265.994 172.023L265.786 172.956C265.717 173.249 265.457 173.457 265.145 173.457V173.457Z" fill="white"/>
<path d="M230.164 194.1L229.727 194.943L250.425 205.632L250.863 204.788L230.164 194.1Z" fill="white"/>
<path d="M250.411 206.258C250.307 206.258 250.203 206.241 250.116 206.189L229.423 195.515C229.111 195.359 228.973 194.962 229.146 194.651L229.579 193.804C229.665 193.649 229.786 193.528 229.96 193.476C230.133 193.424 230.306 193.442 230.462 193.511L251.155 204.186C251.467 204.341 251.605 204.738 251.432 205.049L250.999 205.896C250.913 206.051 250.791 206.172 250.618 206.224C250.549 206.241 250.48 206.258 250.428 206.258H250.411Z" fill="white"/>
<path d="M213.524 215.994L212.883 216.697L230.104 232.338L230.745 231.636L213.524 215.994Z" fill="white"/>
<path d="M230.097 232.997C229.941 232.997 229.786 232.945 229.664 232.825L212.434 217.175C212.313 217.054 212.227 216.899 212.227 216.726C212.227 216.553 212.279 216.381 212.4 216.26L213.04 215.551C213.283 215.292 213.698 215.275 213.958 215.517L231.188 231.166C231.309 231.287 231.396 231.443 231.396 231.615C231.396 231.788 231.344 231.961 231.223 232.082L230.582 232.79C230.461 232.928 230.27 232.997 230.097 232.997Z" fill="white"/>
<path d="M190.27 233.171L189.469 233.685L202.071 253.243L202.872 252.729L190.27 233.171Z" fill="white"/>
<path d="M202.065 253.915C202.065 253.915 201.978 253.915 201.926 253.915C201.753 253.88 201.615 253.777 201.511 253.639L188.922 234.085C188.731 233.792 188.818 233.377 189.112 233.187L189.909 232.669C190.047 232.583 190.22 232.548 190.393 232.583C190.567 232.617 190.705 232.721 190.809 232.859L203.398 252.412C203.589 252.706 203.502 253.12 203.208 253.31L202.411 253.829C202.307 253.898 202.186 253.932 202.065 253.932V253.915Z" fill="white"/>
<path d="M163.016 244.867L162.109 245.157L169.218 267.281L170.125 266.991L163.016 244.867Z" fill="white"/>
<path d="M169.232 267.941C168.955 267.941 168.695 267.768 168.608 267.492L161.491 245.365C161.439 245.209 161.457 245.019 161.526 244.864C161.612 244.708 161.734 244.587 161.907 244.536L162.807 244.242C163.154 244.138 163.517 244.328 163.621 244.657L170.738 266.783C170.79 266.939 170.773 267.129 170.704 267.284C170.617 267.44 170.496 267.561 170.323 267.613L169.422 267.906C169.422 267.906 169.284 267.941 169.232 267.941V267.941Z" fill="white"/>
<path d="M265.137 99.1883L242.391 104.181L242.595 105.109L265.342 100.116L265.137 99.1883Z" fill="white"/>
<path d="M242.587 105.729C242.465 105.729 242.344 105.694 242.24 105.625C242.102 105.539 241.998 105.383 241.963 105.211L241.755 104.278C241.686 103.932 241.894 103.587 242.258 103.501L265.012 98.5086C265.358 98.4222 265.704 98.6468 265.791 99.0095L265.999 99.9423C266.033 100.115 265.999 100.288 265.912 100.426C265.825 100.564 265.67 100.668 265.496 100.702L242.742 105.694C242.742 105.694 242.656 105.694 242.604 105.694L242.587 105.729Z" fill="white"/>
<path d="M250.418 66.3456L229.719 77.0343L230.157 77.878L250.856 67.1893L250.418 66.3456Z" fill="white"/>
<path d="M230.15 78.5409C230.15 78.5409 230.012 78.5409 229.96 78.5063C229.804 78.4545 229.665 78.3336 229.579 78.1781L229.146 77.3318C228.973 77.0208 229.111 76.6236 229.423 76.4681L250.116 65.7933C250.272 65.7069 250.445 65.7069 250.618 65.7588C250.774 65.8106 250.913 65.9315 250.999 66.0869L251.432 66.9333C251.605 67.2442 251.467 67.6415 251.155 67.797L230.462 78.4718C230.375 78.5236 230.271 78.5409 230.167 78.5409H230.15Z" fill="white"/>
<path d="M230.08 39.6219L212.859 55.2635L213.501 55.966L230.722 40.3243L230.08 39.6219Z" fill="white"/>
<path d="M213.51 56.6213C213.337 56.6213 213.163 56.5522 213.025 56.4141L212.384 55.7059C212.263 55.5849 212.211 55.4122 212.211 55.2395C212.211 55.0668 212.298 54.9113 212.419 54.7904L229.649 39.1409C229.908 38.8991 230.324 38.9164 230.566 39.1755L231.207 39.8837C231.328 40.0046 231.38 40.1773 231.38 40.35C231.38 40.5228 231.294 40.6782 231.173 40.7991L213.943 56.4486C213.821 56.5695 213.666 56.6213 213.51 56.6213V56.6213Z" fill="white"/>
<path d="M202.079 18.7064L189.477 38.2646L190.278 38.7783L202.88 19.2201L202.079 18.7064Z" fill="white"/>
<path d="M190.255 39.3999C190.134 39.3999 190.012 39.3654 189.909 39.2963L189.112 38.7781C188.818 38.5881 188.731 38.1908 188.922 37.8799L201.511 18.3267C201.597 18.1885 201.753 18.0849 201.926 18.0503C202.099 18.0158 202.273 18.0503 202.411 18.1367L203.208 18.6549C203.502 18.8449 203.589 19.2422 203.398 19.5531L190.809 39.1063C190.722 39.2445 190.567 39.3481 190.393 39.3827C190.341 39.3827 190.307 39.3827 190.255 39.3827V39.3999Z" fill="white"/>
<path d="M169.225 4.68685L162.117 26.8108L163.024 27.1007L170.132 4.9768L169.225 4.68685Z" fill="white"/>
<path d="M163.034 27.7579C163.034 27.7579 162.896 27.7579 162.844 27.7234L161.943 27.4297C161.787 27.3779 161.649 27.257 161.562 27.1015C161.476 26.9461 161.476 26.7733 161.528 26.6006L168.645 4.47372C168.749 4.12826 169.112 3.95553 169.459 4.05917L170.359 4.35281C170.515 4.40463 170.653 4.52554 170.74 4.681C170.827 4.83646 170.827 5.00919 170.775 5.18192L163.658 27.3088C163.571 27.5852 163.311 27.7579 163.034 27.7579V27.7579Z" fill="white"/>
<path d="M23.8482 167.839L1.10156 172.832L1.30624 173.759L24.0529 168.767L23.8482 167.839Z" fill="white"/>
<path d="M1.31491 174.407C1.02053 174.407 0.743462 174.2 0.674195 173.906L0.466397 172.973C0.431763 172.8 0.466397 172.628 0.552979 172.49C0.639562 172.351 0.795412 172.248 0.968577 172.213L23.7226 167.221C24.0689 167.152 24.4152 167.359 24.5018 167.722L24.7096 168.655C24.7442 168.828 24.7096 169 24.623 169.139C24.5364 169.277 24.3806 169.38 24.2074 169.415L1.45344 174.407C1.45344 174.407 1.36686 174.407 1.31491 174.407V174.407Z" fill="white"/>
<path d="M36.3239 195.018L15.625 205.707L16.0629 206.551L36.7618 195.862L36.3239 195.018Z" fill="white"/>
<path d="M16.0485 207.209C16.0485 207.209 15.91 207.209 15.8581 207.174C15.7022 207.122 15.5637 207.001 15.4771 206.846L15.0442 205.999C14.871 205.689 15.0096 205.291 15.3213 205.136L36.0146 194.461C36.1704 194.375 36.3436 194.375 36.5167 194.426C36.6726 194.478 36.8111 194.599 36.8977 194.755L37.3306 195.601C37.5038 195.912 37.3653 196.309 37.0536 196.465L16.3602 207.14C16.2737 207.191 16.1698 207.209 16.0659 207.209H16.0485Z" fill="white"/>
<path d="M52.9399 216.964L35.7188 232.606L36.36 233.308L53.5811 217.667L52.9399 216.964Z" fill="white"/>
<path d="M36.3612 233.947C36.1881 233.947 36.0149 233.878 35.8764 233.74L35.2357 233.032C35.1145 232.911 35.0625 232.738 35.0625 232.566C35.0625 232.393 35.1491 232.237 35.2703 232.116L52.5003 216.467C52.76 216.225 53.1756 216.242 53.4181 216.502L54.0588 217.21C54.18 217.331 54.232 217.503 54.232 217.676C54.232 217.849 54.1454 218.004 54.0242 218.125L36.7942 233.775C36.6729 233.896 36.5171 233.947 36.3612 233.947V233.947Z" fill="white"/>
<path d="M76.2038 234.18L63.6016 253.738L64.4027 254.252L77.005 234.694L76.2038 234.18Z" fill="white"/>
<path d="M64.3955 254.865C64.2743 254.865 64.1531 254.831 64.0492 254.762L63.2527 254.243C62.9583 254.053 62.8717 253.656 63.0622 253.345L75.6513 233.792C75.7379 233.654 75.8938 233.55 76.0669 233.516C76.2401 233.481 76.4133 233.516 76.5518 233.602L77.3483 234.12C77.6427 234.31 77.7293 234.707 77.5388 235.018L64.9497 254.572C64.8631 254.71 64.7072 254.813 64.5341 254.848C64.4821 254.848 64.4475 254.848 64.3955 254.848V254.865Z" fill="white"/>
<path d="M103.421 245.807L96.3125 267.931L97.2195 268.221L104.328 246.097L103.421 245.807Z" fill="white"/>
<path d="M97.2295 268.891C97.2295 268.891 97.091 268.891 97.039 268.856L96.1386 268.563C95.9827 268.511 95.8442 268.39 95.7576 268.235C95.671 268.079 95.671 267.906 95.723 267.734L102.84 245.607C102.944 245.261 103.308 245.089 103.654 245.192L104.554 245.486C104.71 245.538 104.849 245.659 104.935 245.814C105.022 245.97 105.022 246.142 104.97 246.315L97.8529 268.442C97.7663 268.718 97.5066 268.891 97.2295 268.891V268.891Z" fill="white"/>
</g>
<defs>
<clipPath id="clip0_156_2334">
<rect width="266" height="272" fill="white"/>
</clipPath>
</defs>
</svg>
