<svg width="267" height="272" viewBox="0 0 267 272" fill="none" xmlns="http://www.w3.org/2000/svg">
<path d="M137.818 248.336C131.376 248.336 126.164 253.535 126.164 259.961C126.164 266.386 131.376 271.585 137.818 271.585V248.353V248.336Z" fill="white"/>
<path d="M137.818 272C131.151 272 125.731 266.594 125.731 259.943C125.731 253.293 131.151 247.887 137.818 247.887C138.06 247.887 138.251 248.077 138.251 248.319V271.568C138.251 271.81 138.06 272 137.818 272V272ZM137.385 248.768C131.393 248.992 126.597 253.915 126.597 259.943C126.597 265.972 131.393 270.895 137.385 271.119V248.75V248.768Z" fill="white"/>
<path d="M126.978 23.6815C133.42 23.6815 138.632 18.4822 138.632 12.0566C138.632 5.63104 133.42 0.431824 126.978 0.431824V23.6815Z" fill="white"/>
<path d="M126.978 24.1133C126.735 24.1133 126.545 23.9233 126.545 23.6815V0.431828C126.545 0.190004 126.735 0 126.978 0C133.645 0 139.065 5.40649 139.065 12.0566C139.065 18.7068 133.645 24.1133 126.978 24.1133ZM127.411 0.88093V23.2324C133.402 23.0078 138.199 18.085 138.199 12.0566C138.199 6.02832 133.402 1.10548 127.411 0.88093V0.88093Z" fill="white"/>
<path d="M8.86138 145.181C4.34175 145.181 0.65332 141.519 0.65332 136.993C0.65332 132.468 4.32444 128.806 8.86138 128.806C13.3983 128.806 17.0694 132.468 17.0694 136.993C17.0694 141.519 13.3983 145.181 8.86138 145.181V145.181ZM8.86138 130.723C5.38075 130.723 2.55814 133.539 2.55814 137.01C2.55814 140.482 5.38075 143.298 8.86138 143.298C12.342 143.298 15.1646 140.482 15.1646 137.01C15.1646 133.539 12.342 130.723 8.86138 130.723V130.723Z" fill="white"/>
<path d="M8.86143 145.612C4.09937 145.612 0.220459 141.743 0.220459 136.993C0.220459 132.243 4.09937 128.374 8.86143 128.374C13.6235 128.374 17.5024 132.243 17.5024 136.993C17.5024 141.743 13.6235 145.612 8.86143 145.612V145.612ZM8.86143 129.255C4.58424 129.255 1.08629 132.727 1.08629 137.01C1.08629 141.294 4.56692 144.766 8.86143 144.766C13.1559 144.766 16.6366 141.294 16.6366 137.01C16.6366 132.727 13.1559 129.255 8.86143 129.255V129.255ZM8.86143 143.712C5.15568 143.712 2.12528 140.707 2.12528 136.993C2.12528 133.279 5.13837 130.274 8.86143 130.274C12.5845 130.274 15.5976 133.279 15.5976 136.993C15.5976 140.707 12.5845 143.712 8.86143 143.712V143.712ZM8.86143 131.138C5.62323 131.138 2.99111 133.763 2.99111 136.993C2.99111 140.223 5.62323 142.849 8.86143 142.849C12.0996 142.849 14.7318 140.223 14.7318 136.993C14.7318 133.763 12.0996 131.138 8.86143 131.138V131.138Z" fill="white"/>
<path d="M258.116 143.246C262.124 143.246 265.372 140.006 265.372 136.009C265.372 132.011 262.124 128.771 258.116 128.771C254.109 128.771 250.861 132.011 250.861 136.009C250.861 140.006 254.109 143.246 258.116 143.246Z" fill="white"/>
<path d="M258.116 143.661C253.874 143.661 250.428 140.223 250.428 135.991C250.428 131.759 253.874 128.322 258.116 128.322C262.359 128.322 265.805 131.759 265.805 135.991C265.805 140.223 262.359 143.661 258.116 143.661ZM258.116 129.203C254.359 129.203 251.294 132.26 251.294 136.009C251.294 139.757 254.359 142.814 258.116 142.814C261.874 142.814 264.939 139.757 264.939 136.009C264.939 132.26 261.874 129.203 258.116 129.203Z" fill="white"/>
<path d="M0.878751 99.1498L0.674072 100.078L23.4207 105.07L23.6254 104.143L0.878751 99.1498Z" fill="white"/>
<path d="M23.4245 105.729C23.4245 105.729 23.338 105.729 23.286 105.729L0.514702 100.72C0.16837 100.651 -0.0567451 100.305 0.0125212 99.9423L0.22032 99.0096C0.254953 98.8369 0.358853 98.6987 0.497386 98.595C0.635918 98.5087 0.826401 98.4741 0.98225 98.5087L23.7362 103.501C24.0826 103.57 24.3077 103.915 24.2384 104.278L24.0306 105.211C23.996 105.383 23.8921 105.522 23.7536 105.625C23.6497 105.694 23.5284 105.729 23.4072 105.729H23.4245Z" fill="white"/>
<path d="M15.6048 66.3603L15.167 67.204L35.8659 77.8926L36.3038 77.049L15.6048 66.3603Z" fill="white"/>
<path d="M35.8578 78.5409C35.7539 78.5409 35.65 78.5236 35.5634 78.4718L14.8701 67.797C14.5584 67.6416 14.4198 67.2443 14.593 66.9334L15.0259 66.087C15.1125 65.9315 15.2337 65.8106 15.4069 65.7588C15.5801 65.707 15.7532 65.7243 15.9091 65.7933L36.6024 76.4681C36.9141 76.6236 37.0526 77.0209 36.8795 77.3318L36.4465 78.1782C36.36 78.3336 36.2387 78.4546 36.0656 78.5064C35.9963 78.5236 35.927 78.5409 35.8751 78.5409H35.8578Z" fill="white"/>
<path d="M35.9039 39.6233L35.2627 40.3257L52.4838 55.9674L53.1251 55.265L35.9039 39.6233Z" fill="white"/>
<path d="M52.4991 56.6213C52.3433 56.6213 52.1874 56.5695 52.0662 56.4486L34.8362 40.7991C34.715 40.6782 34.6284 40.5228 34.6284 40.35C34.6284 40.1773 34.6804 40.0046 34.8016 39.8837L35.4423 39.1755C35.6847 38.9164 36.1003 38.8991 36.3601 39.1409L53.5901 54.7904C53.7113 54.9113 53.7979 55.0668 53.7979 55.2395C53.7979 55.4122 53.7459 55.5849 53.6247 55.7059L52.984 56.4141C52.8628 56.5522 52.6723 56.6213 52.4991 56.6213V56.6213Z" fill="white"/>
<path d="M63.9399 18.6835L63.1387 19.1972L75.7409 38.7554L76.5421 38.2418L63.9399 18.6835Z" fill="white"/>
<path d="M75.7382 39.4C75.7382 39.4 75.6516 39.4 75.5996 39.4C75.4265 39.3655 75.2879 39.2618 75.184 39.1237L62.5949 19.5705C62.4044 19.2768 62.491 18.8623 62.7854 18.6723L63.5819 18.1541C63.7205 18.0677 63.9109 18.0332 64.0668 18.0677C64.2226 18.1023 64.3785 18.2059 64.4824 18.3441L77.0715 37.8973C77.262 38.1909 77.1754 38.6055 76.8811 38.7955L76.0845 39.3137C75.9806 39.3828 75.8594 39.4173 75.7382 39.4173V39.4Z" fill="white"/>
<path d="M96.7756 4.67412L95.8687 4.96407L102.977 27.088L103.884 26.7981L96.7756 4.67412Z" fill="white"/>
<path d="M102.976 27.7579C102.699 27.7579 102.439 27.5852 102.353 27.3088L95.2358 5.18195C95.1838 5.02649 95.2011 4.83648 95.2704 4.68103C95.357 4.52557 95.4782 4.40466 95.6514 4.35284L96.5518 4.05919C96.8982 3.95555 97.2618 4.14556 97.3657 4.47375L104.483 26.6006C104.535 26.7561 104.517 26.9461 104.448 27.1015C104.362 27.257 104.24 27.3779 104.067 27.4297L103.167 27.7234C103.167 27.7234 103.028 27.7579 102.976 27.7579Z" fill="white"/>
<path d="M242.592 166.871L242.388 167.799L265.134 172.792L265.339 171.864L242.592 166.871Z" fill="white"/>
<path d="M265.164 173.457C265.164 173.457 265.078 173.457 265.026 173.457L242.272 168.465C242.099 168.43 241.96 168.327 241.856 168.188C241.752 168.05 241.735 167.86 241.77 167.705L241.977 166.772C242.047 166.427 242.41 166.202 242.757 166.271L265.511 171.263C265.684 171.298 265.822 171.401 265.926 171.539C266.03 171.678 266.047 171.868 266.013 172.023L265.805 172.956C265.736 173.249 265.476 173.457 265.164 173.457V173.457Z" fill="white"/>
<path d="M230.182 194.1L229.745 194.943L250.444 205.632L250.881 204.788L230.182 194.1Z" fill="white"/>
<path d="M250.428 206.258C250.324 206.258 250.22 206.241 250.134 206.189L229.44 195.515C229.129 195.359 228.99 194.962 229.163 194.651L229.596 193.805C229.683 193.649 229.804 193.528 229.977 193.476C230.15 193.425 230.324 193.442 230.479 193.511L251.173 204.186C251.484 204.341 251.623 204.738 251.45 205.049L251.017 205.896C250.93 206.051 250.809 206.172 250.636 206.224C250.567 206.241 250.497 206.258 250.445 206.258H250.428Z" fill="white"/>
<path d="M213.54 215.994L212.898 216.697L230.12 232.338L230.761 231.636L213.54 215.994Z" fill="white"/>
<path d="M230.115 232.997C229.96 232.997 229.804 232.945 229.682 232.825L212.452 217.175C212.331 217.054 212.245 216.899 212.245 216.726C212.245 216.553 212.297 216.38 212.418 216.26L213.059 215.551C213.301 215.292 213.717 215.275 213.976 215.517L231.206 231.166C231.327 231.287 231.414 231.443 231.414 231.615C231.414 231.788 231.362 231.961 231.241 232.082L230.6 232.79C230.479 232.928 230.289 232.997 230.115 232.997Z" fill="white"/>
<path d="M190.287 233.171L189.486 233.685L202.088 253.243L202.889 252.729L190.287 233.171Z" fill="white"/>
<path d="M202.08 253.915C202.08 253.915 201.993 253.915 201.941 253.915C201.768 253.88 201.63 253.777 201.526 253.639L188.937 234.085C188.746 233.792 188.833 233.377 189.127 233.187L189.924 232.669C190.062 232.583 190.235 232.548 190.409 232.583C190.582 232.617 190.72 232.721 190.824 232.859L203.413 252.412C203.604 252.706 203.517 253.12 203.223 253.31L202.426 253.829C202.322 253.898 202.201 253.932 202.08 253.932V253.915Z" fill="white"/>
<path d="M163.032 244.867L162.125 245.157L169.234 267.281L170.141 266.991L163.032 244.867Z" fill="white"/>
<path d="M169.248 267.941C168.971 267.941 168.711 267.768 168.624 267.492L161.507 245.365C161.455 245.209 161.473 245.019 161.542 244.864C161.628 244.708 161.75 244.588 161.923 244.536L162.823 244.242C163.17 244.138 163.533 244.328 163.637 244.657L170.754 266.783C170.806 266.939 170.789 267.129 170.72 267.284C170.633 267.44 170.512 267.561 170.339 267.613L169.438 267.906C169.438 267.906 169.3 267.941 169.248 267.941V267.941Z" fill="white"/>
<path d="M265.155 99.1883L242.408 104.181L242.613 105.109L265.359 100.116L265.155 99.1883Z" fill="white"/>
<path d="M242.601 105.729C242.48 105.729 242.358 105.694 242.254 105.625C242.116 105.539 242.012 105.383 241.977 105.211L241.77 104.278C241.7 103.932 241.908 103.587 242.272 103.501L265.026 98.5087C265.372 98.4223 265.718 98.6468 265.805 99.0096L266.013 99.9423C266.047 100.115 266.013 100.288 265.926 100.426C265.84 100.564 265.684 100.668 265.511 100.702L242.757 105.694C242.757 105.694 242.67 105.694 242.618 105.694L242.601 105.729Z" fill="white"/>
<path d="M250.433 66.3457L229.734 77.0343L230.172 77.878L250.871 67.1893L250.433 66.3457Z" fill="white"/>
<path d="M230.167 78.5409C230.167 78.5409 230.029 78.5409 229.977 78.5064C229.821 78.4546 229.682 78.3337 229.596 78.1782L229.163 77.3318C228.99 77.0209 229.128 76.6236 229.44 76.4682L250.133 65.7934C250.289 65.707 250.462 65.707 250.635 65.7588C250.791 65.8106 250.93 65.9315 251.016 66.087L251.449 66.9334C251.622 67.2443 251.484 67.6416 251.172 67.797L230.479 78.4718C230.392 78.5237 230.288 78.5409 230.185 78.5409H230.167Z" fill="white"/>
<path d="M230.096 39.6219L212.875 55.2635L213.516 55.966L230.737 40.3243L230.096 39.6219Z" fill="white"/>
<path d="M213.526 56.6213C213.353 56.6213 213.18 56.5522 213.041 56.4141L212.401 55.7059C212.279 55.5849 212.228 55.4122 212.228 55.2395C212.228 55.0668 212.314 54.9113 212.435 54.7904L229.665 39.1409C229.925 38.8991 230.341 38.9164 230.583 39.1755L231.224 39.8837C231.345 40.0046 231.397 40.1773 231.397 40.35C231.397 40.5228 231.31 40.6782 231.189 40.7991L213.959 56.4486C213.838 56.5695 213.682 56.6213 213.526 56.6213V56.6213Z" fill="white"/>
<path d="M202.096 18.7064L189.494 38.2646L190.295 38.7783L202.898 19.2201L202.096 18.7064Z" fill="white"/>
<path d="M190.27 39.4C190.149 39.4 190.028 39.3655 189.924 39.2964L189.127 38.7782C188.833 38.5882 188.746 38.1909 188.937 37.88L201.526 18.3268C201.612 18.1886 201.768 18.085 201.941 18.0504C202.115 18.0159 202.288 18.0504 202.426 18.1368L203.223 18.655C203.517 18.845 203.604 19.2423 203.413 19.5532L190.824 39.1064C190.738 39.2445 190.582 39.3482 190.409 39.3827C190.357 39.3827 190.322 39.3827 190.27 39.3827V39.4Z" fill="white"/>
<path d="M169.24 4.68685L162.131 26.8108L163.038 27.1007L170.147 4.9768L169.24 4.68685Z" fill="white"/>
<path d="M163.048 27.7579C163.048 27.7579 162.91 27.7579 162.858 27.7234L161.957 27.4297C161.802 27.3779 161.663 27.257 161.576 27.1015C161.49 26.9461 161.49 26.7733 161.542 26.6006L168.659 4.47374C168.763 4.12828 169.126 3.95554 169.473 4.05918L170.373 4.35283C170.529 4.40465 170.668 4.52556 170.754 4.68102C170.841 4.83647 170.841 5.0092 170.789 5.18194L163.672 27.3088C163.585 27.5852 163.325 27.7579 163.048 27.7579V27.7579Z" fill="white"/>
<path d="M23.8618 167.839L1.11523 172.831L1.31991 173.759L24.0665 168.767L23.8618 167.839Z" fill="white"/>
<path d="M1.32858 174.407C1.0342 174.407 0.757134 174.199 0.687867 173.906L0.480068 172.973C0.445435 172.8 0.480068 172.628 0.566651 172.489C0.653234 172.351 0.809083 172.248 0.982249 172.213L23.7362 167.221C24.0826 167.152 24.4289 167.359 24.5155 167.722L24.7233 168.655C24.7579 168.828 24.7233 169 24.6367 169.138C24.5501 169.277 24.3943 169.38 24.2211 169.415L1.46711 174.407C1.46711 174.407 1.38053 174.407 1.32858 174.407V174.407Z" fill="white"/>
<path d="M36.342 195.018L15.6431 205.707L16.0809 206.551L36.7798 195.862L36.342 195.018Z" fill="white"/>
<path d="M16.0652 207.208C16.0652 207.208 15.9266 207.208 15.8747 207.174C15.7188 207.122 15.5803 207.001 15.4937 206.846L15.0608 205.999C14.8876 205.688 15.0262 205.291 15.3379 205.136L36.0312 194.461C36.187 194.375 36.3602 194.375 36.5333 194.426C36.6892 194.478 36.8277 194.599 36.9143 194.755L37.3472 195.601C37.5204 195.912 37.3819 196.309 37.0702 196.465L16.3768 207.139C16.2903 207.191 16.1864 207.208 16.0825 207.208H16.0652Z" fill="white"/>
<path d="M52.955 216.964L35.7339 232.606L36.3751 233.308L53.5963 217.666L52.955 216.964Z" fill="white"/>
<path d="M36.3774 233.947C36.2042 233.947 36.031 233.878 35.8925 233.74L35.2518 233.032C35.1306 232.911 35.0786 232.738 35.0786 232.565C35.0786 232.393 35.1652 232.237 35.2864 232.116L52.5164 216.467C52.7762 216.225 53.1918 216.242 53.4342 216.501L54.0749 217.21C54.1961 217.331 54.2481 217.503 54.2481 217.676C54.2481 217.849 54.1615 218.004 54.0403 218.125L36.8103 233.775C36.6891 233.895 36.5332 233.947 36.3774 233.947V233.947Z" fill="white"/>
<path d="M76.219 234.18L63.6167 253.738L64.4179 254.252L77.0201 234.694L76.219 234.18Z" fill="white"/>
<path d="M64.4131 254.865C64.2919 254.865 64.1707 254.831 64.0668 254.761L63.2702 254.243C62.9758 254.053 62.8893 253.656 63.0797 253.345L75.6689 233.792C75.7555 233.654 75.9113 233.55 76.0845 233.515C76.2577 233.481 76.4308 233.515 76.5694 233.602L77.3659 234.12C77.6603 234.31 77.7469 234.707 77.5564 235.018L64.9673 254.571C64.8807 254.71 64.7248 254.813 64.5517 254.848C64.4997 254.848 64.4651 254.848 64.4131 254.848V254.865Z" fill="white"/>
<path d="M103.44 245.807L96.332 267.931L97.239 268.221L104.347 246.097L103.44 245.807Z" fill="white"/>
<path d="M97.2451 268.891C97.2451 268.891 97.1066 268.891 97.0546 268.856L96.1542 268.563C95.9983 268.511 95.8598 268.39 95.7732 268.234C95.6866 268.079 95.6866 267.906 95.7386 267.734L102.856 245.607C102.96 245.261 103.323 245.088 103.67 245.192L104.57 245.486C104.726 245.538 104.864 245.658 104.951 245.814C105.038 245.969 105.038 246.142 104.986 246.315L97.8685 268.442C97.7819 268.718 97.5222 268.891 97.2451 268.891V268.891Z" fill="white"/>
</svg>
