<svg width="262" height="269" viewBox="0 0 262 269" fill="none" xmlns="http://www.w3.org/2000/svg">
<g clip-path="url(#clip0_156_3423)">
<path d="M106.862 192.607C105.446 192.607 104.303 191.445 104.321 190.027L104.747 72.1913C104.747 70.7734 105.89 69.646 107.305 69.646C108.721 69.646 109.864 70.8076 109.847 72.2255L109.42 190.061C109.42 191.479 108.278 192.607 106.862 192.607V192.607Z" fill="white"/>
<path d="M158.009 193.478C156.61 193.478 155.467 192.35 155.45 190.932L154.648 107.074C154.648 105.656 155.774 104.494 157.19 104.494C158.623 104.494 159.765 105.622 159.765 107.04L160.567 190.898C160.567 192.316 159.441 193.478 158.026 193.478H158.009V193.478Z" fill="white"/>
<path d="M107.303 103.094C91.0999 103.094 77.8984 89.8888 77.8984 73.6432C77.8984 72.2253 79.0412 71.0808 80.4569 71.0808C81.8725 71.0808 83.0153 72.2253 83.0153 73.6432C83.0153 87.0531 93.9142 97.9689 107.303 97.9689C120.692 97.9689 131.591 87.0531 131.591 73.6432C131.591 72.2253 132.734 71.0808 134.15 71.0808C135.565 71.0808 136.708 72.2253 136.708 73.6432C136.708 89.8717 123.524 103.094 107.303 103.094V103.094Z" fill="white"/>
<path d="M157.314 155.179C156.649 155.179 155.984 154.922 155.489 154.41C151.567 150.395 138.791 135.653 139.337 114.044C140.054 85.9086 162.431 70.3805 164.99 68.6893C165.808 68.1427 166.866 68.1256 167.702 68.6381C168.537 69.1506 169.015 70.0901 168.93 71.0638C168.111 80.1518 169.305 88.5564 172.494 96.0557C174.985 101.915 177.987 105.588 180.63 108.816C183.615 112.455 186.191 115.615 186.771 120.398C188.033 130.853 178.839 142.11 158.679 154.786C158.253 155.042 157.792 155.179 157.314 155.179V155.179ZM163.574 76.1886C156.888 81.8771 144.949 94.7062 144.454 114.163C144.011 131.656 153.221 144.212 157.741 149.302C174.354 138.557 182.626 128.803 181.688 121.013C181.278 117.699 179.351 115.325 176.673 112.062C173.961 108.731 170.567 104.597 167.787 98.0543C164.939 91.3409 163.523 84.0124 163.574 76.1886V76.1886Z" fill="white"/>
<path d="M135.737 245.597C129.392 245.597 124.258 250.739 124.258 257.093C124.258 263.448 129.392 268.59 135.737 268.59V245.614V245.597Z" fill="white"/>
<path d="M135.733 269C129.167 269 123.828 263.653 123.828 257.076C123.828 250.499 129.167 245.153 135.733 245.153C135.972 245.153 136.16 245.34 136.16 245.58V268.573C136.16 268.812 135.972 269 135.733 269V269ZM135.307 246.024C129.406 246.246 124.681 251.114 124.681 257.076C124.681 263.038 129.406 267.907 135.307 268.129V246.007V246.024Z" fill="white"/>
<path d="M125.055 23.4202C131.4 23.4202 136.534 18.2783 136.534 11.9236C136.534 5.56887 131.4 0.427002 125.055 0.427002V23.4202Z" fill="white"/>
<path d="M125.051 23.8473C124.813 23.8473 124.625 23.6594 124.625 23.4203V0.427065C124.625 0.187909 124.813 0 125.051 0C131.618 0 136.957 5.34686 136.957 11.9237C136.957 18.5005 131.618 23.8473 125.051 23.8473ZM125.478 0.871214V22.9761C131.379 22.754 136.104 17.8855 136.104 11.9237C136.104 5.96183 131.379 1.09329 125.478 0.871214V0.871214Z" fill="white"/>
<path d="M8.71744 143.579C4.26578 143.579 0.632812 139.958 0.632812 135.482C0.632812 131.007 4.24872 127.385 8.71744 127.385C13.1862 127.385 16.8021 131.007 16.8021 135.482C16.8021 139.958 13.1862 143.579 8.71744 143.579V143.579ZM8.71744 129.281C5.28915 129.281 2.50899 132.066 2.50899 135.499C2.50899 138.933 5.28915 141.717 8.71744 141.717C12.1457 141.717 14.9259 138.933 14.9259 135.499C14.9259 132.066 12.1457 129.281 8.71744 129.281V129.281Z" fill="white"/>
<path d="M8.71416 144.006C4.02371 144.006 0.203125 140.18 0.203125 135.482C0.203125 130.785 4.02371 126.958 8.71416 126.958C13.4046 126.958 17.2252 130.785 17.2252 135.482C17.2252 140.18 13.4046 144.006 8.71416 144.006V144.006ZM8.71416 127.829C4.50128 127.829 1.05593 131.263 1.05593 135.499C1.05593 139.736 4.48423 143.169 8.71416 143.169C12.9441 143.169 16.3724 139.736 16.3724 135.499C16.3724 131.263 12.9441 127.829 8.71416 127.829V127.829ZM8.71416 142.127C5.06414 142.127 2.0793 139.155 2.0793 135.482C2.0793 131.809 5.04708 128.837 8.71416 128.837C12.3812 128.837 15.349 131.809 15.349 135.482C15.349 139.155 12.3812 142.127 8.71416 142.127V142.127ZM8.71416 129.691C5.52465 129.691 2.93211 132.288 2.93211 135.482C2.93211 138.677 5.52465 141.273 8.71416 141.273C11.9037 141.273 14.4962 138.677 14.4962 135.482C14.4962 132.288 11.9037 129.691 8.71416 129.691V129.691Z" fill="white"/>
<path d="M254.225 141.666C258.172 141.666 261.371 138.461 261.371 134.508C261.371 130.555 258.172 127.351 254.225 127.351C250.278 127.351 247.078 130.555 247.078 134.508C247.078 138.461 250.278 141.666 254.225 141.666Z" fill="white"/>
<path d="M254.221 142.076C250.043 142.076 246.648 138.677 246.648 134.491C246.648 130.306 250.043 126.907 254.221 126.907C258.4 126.907 261.794 130.306 261.794 134.491C261.794 138.677 258.4 142.076 254.221 142.076ZM254.221 127.778C250.52 127.778 247.501 130.802 247.501 134.508C247.501 138.215 250.52 141.239 254.221 141.239C257.923 141.239 260.942 138.215 260.942 134.508C260.942 130.802 257.923 127.778 254.221 127.778Z" fill="white"/>
<path d="M0.850039 98.056L0.648438 98.9736L23.053 103.911L23.2546 102.994L0.850039 98.056Z" fill="white"/>
<path d="M23.0567 104.563C23.0567 104.563 22.9714 104.563 22.9202 104.563L0.491337 99.6086C0.150214 99.5403 -0.0715168 99.1986 -0.00329211 98.8399L0.201382 97.9174C0.235494 97.7466 0.337832 97.6099 0.474281 97.5074C0.61073 97.422 0.798348 97.3879 0.951854 97.422L23.3637 102.359C23.7048 102.427 23.9265 102.769 23.8583 103.128L23.6536 104.05C23.6195 104.221 23.5172 104.358 23.3807 104.46C23.2784 104.528 23.159 104.563 23.0396 104.563H23.0567Z" fill="white"/>
<path d="M15.3531 65.6283L14.9219 66.4626L35.3095 77.0334L35.7408 76.1991L15.3531 65.6283Z" fill="white"/>
<path d="M35.3005 77.6746C35.1982 77.6746 35.0959 77.6575 35.0106 77.6063L14.6285 67.0492C14.3214 66.8955 14.185 66.5026 14.3556 66.1951L14.782 65.358C14.8672 65.2043 14.9866 65.0847 15.1572 65.0335C15.3278 64.9822 15.4983 64.9993 15.6518 65.0676L36.034 75.6247C36.341 75.7784 36.4774 76.1713 36.3069 76.4788L35.8805 77.3159C35.7952 77.4696 35.6758 77.5892 35.5052 77.6404C35.437 77.6575 35.3688 77.6746 35.3176 77.6746H35.3005Z" fill="white"/>
<path d="M35.3503 39.1862L34.7188 39.8809L51.6809 55.35L52.3125 54.6553L35.3503 39.1862Z" fill="white"/>
<path d="M51.6957 55.9968C51.5422 55.9968 51.3887 55.9456 51.2693 55.826L34.2984 40.3492C34.179 40.2296 34.0938 40.0758 34.0938 39.905C34.0938 39.7342 34.1449 39.5634 34.2643 39.4438L34.8954 38.7434C35.1342 38.4872 35.5435 38.4701 35.7994 38.7092L52.7703 54.1861C52.8897 54.3057 52.9749 54.4594 52.9749 54.6302C52.9749 54.8011 52.9238 54.9719 52.8044 55.0915L52.1733 55.7918C52.0539 55.9285 51.8663 55.9968 51.6957 55.9968V55.9968Z" fill="white"/>
<path d="M62.961 18.4774L62.1719 18.9854L74.5846 38.3279L75.3738 37.8199L62.961 18.4774Z" fill="white"/>
<path d="M74.5844 38.9654C74.5844 38.9654 74.4991 38.9654 74.448 38.9654C74.2774 38.9312 74.141 38.8287 74.0386 38.692L61.6388 19.3545C61.4512 19.0641 61.5364 18.6541 61.8264 18.4662L62.611 17.9537C62.7474 17.8683 62.935 17.8342 63.0885 17.8683C63.2421 17.9025 63.3956 18.005 63.4979 18.1416L75.8977 37.4792C76.0854 37.7696 76.0001 38.1795 75.7101 38.3675L74.9255 38.8799C74.8232 38.9483 74.7038 38.9824 74.5844 38.9824V38.9654Z" fill="white"/>
<path d="M95.3074 4.62243L94.4141 4.90918L101.415 26.7891L102.309 26.5024L95.3074 4.62243Z" fill="white"/>
<path d="M101.412 27.4517C101.139 27.4517 100.883 27.2809 100.798 27.0076L93.7876 5.12474C93.7364 4.971 93.7534 4.78309 93.8217 4.62934C93.907 4.4756 94.0263 4.35602 94.1969 4.30477L95.0838 4.01437C95.425 3.91187 95.7831 4.09978 95.8855 4.42435L102.896 26.3072C102.947 26.4609 102.93 26.6488 102.861 26.8026C102.776 26.9563 102.657 27.0759 102.486 27.1272L101.599 27.4176C101.599 27.4176 101.463 27.4517 101.412 27.4517Z" fill="white"/>
<path d="M238.928 165.031L238.727 165.948L261.131 170.886L261.333 169.968L238.928 165.031Z" fill="white"/>
<path d="M261.16 171.544C261.16 171.544 261.075 171.544 261.024 171.544L238.612 166.607C238.442 166.573 238.305 166.47 238.203 166.334C238.1 166.197 238.083 166.009 238.118 165.855L238.322 164.933C238.39 164.591 238.749 164.369 239.09 164.437L261.502 169.374C261.672 169.408 261.809 169.511 261.911 169.648C262.013 169.784 262.03 169.972 261.996 170.126L261.792 171.048C261.723 171.339 261.467 171.544 261.16 171.544V171.544Z" fill="white"/>
<path d="M226.705 191.959L226.273 192.793L246.661 203.364L247.092 202.53L226.705 191.959Z" fill="white"/>
<path d="M246.644 203.984C246.542 203.984 246.44 203.967 246.354 203.915L225.972 193.358C225.665 193.205 225.529 192.812 225.699 192.504L226.126 191.667C226.211 191.513 226.33 191.394 226.501 191.343C226.672 191.291 226.842 191.308 226.996 191.377L247.378 201.934C247.685 202.088 247.821 202.48 247.651 202.788L247.224 203.625C247.139 203.779 247.02 203.898 246.849 203.95C246.781 203.967 246.713 203.984 246.661 203.984H246.644Z" fill="white"/>
<path d="M210.311 213.612L209.68 214.307L226.642 229.776L227.273 229.081L210.311 213.612Z" fill="white"/>
<path d="M226.641 230.428C226.488 230.428 226.334 230.376 226.215 230.257L209.244 214.78C209.124 214.66 209.039 214.507 209.039 214.336C209.039 214.165 209.09 213.994 209.21 213.874L209.841 213.174C210.079 212.918 210.489 212.901 210.745 213.14L227.716 228.617C227.835 228.736 227.92 228.89 227.92 229.061C227.92 229.232 227.869 229.403 227.75 229.522L227.119 230.223C226.999 230.359 226.812 230.428 226.641 230.428Z" fill="white"/>
<path d="M187.406 230.599L186.617 231.107L199.03 250.45L199.819 249.942L187.406 230.599Z" fill="white"/>
<path d="M199.022 251.115C199.022 251.115 198.937 251.115 198.885 251.115C198.715 251.08 198.578 250.978 198.476 250.841L186.076 231.504C185.889 231.213 185.974 230.803 186.264 230.615L187.048 230.103C187.185 230.017 187.355 229.983 187.526 230.017C187.697 230.052 187.833 230.154 187.935 230.291L200.335 249.628C200.523 249.919 200.438 250.329 200.148 250.517L199.363 251.029C199.261 251.097 199.141 251.132 199.022 251.132V251.115Z" fill="white"/>
<path d="M160.565 242.167L159.672 242.453L166.673 264.333L167.567 264.047L160.565 242.167Z" fill="white"/>
<path d="M166.685 264.986C166.412 264.986 166.156 264.815 166.071 264.542L159.061 242.659C159.01 242.505 159.027 242.317 159.095 242.163C159.18 242.01 159.3 241.89 159.47 241.839L160.357 241.548C160.698 241.446 161.057 241.634 161.159 241.958L168.169 263.841C168.22 263.995 168.203 264.183 168.135 264.337C168.05 264.49 167.93 264.61 167.76 264.661L166.873 264.952C166.873 264.952 166.736 264.986 166.685 264.986V264.986Z" fill="white"/>
<path d="M261.155 98.0943L238.75 103.032L238.952 103.95L261.356 99.0119L261.155 98.0943Z" fill="white"/>
<path d="M238.941 104.563C238.822 104.563 238.702 104.528 238.6 104.46C238.464 104.375 238.361 104.221 238.327 104.05L238.122 103.128C238.054 102.786 238.259 102.444 238.617 102.359L261.029 97.4221C261.37 97.3367 261.711 97.5588 261.796 97.9175L262.001 98.8399C262.035 99.0108 262.001 99.1816 261.916 99.3183C261.83 99.4549 261.677 99.5574 261.506 99.5916L239.095 104.528C239.095 104.528 239.009 104.528 238.958 104.528L238.941 104.563Z" fill="white"/>
<path d="M246.653 65.6138L226.266 76.1846L226.697 77.0189L247.085 66.4482L246.653 65.6138Z" fill="white"/>
<path d="M226.689 77.6746C226.689 77.6746 226.552 77.6746 226.501 77.6405C226.347 77.5892 226.211 77.4697 226.126 77.3159L225.699 76.4789C225.529 76.1714 225.665 75.7785 225.972 75.6247L246.354 65.0677C246.508 64.9823 246.678 64.9823 246.849 65.0335C247.002 65.0848 247.139 65.2043 247.224 65.3581L247.651 66.1951C247.821 66.5026 247.685 66.8955 247.378 67.0493L226.996 77.6063C226.91 77.6576 226.808 77.6746 226.706 77.6746H226.689Z" fill="white"/>
<path d="M226.626 39.1849L209.664 54.6541L210.296 55.3487L227.258 39.8796L226.626 39.1849Z" fill="white"/>
<path d="M210.303 55.9968C210.132 55.9968 209.962 55.9285 209.825 55.7918L209.194 55.0915C209.075 54.9719 209.023 54.8011 209.023 54.6302C209.023 54.4594 209.109 54.3057 209.228 54.1861L226.199 38.7092C226.455 38.4701 226.864 38.4872 227.103 38.7434L227.734 39.4438C227.853 39.5634 227.905 39.7342 227.905 39.905C227.905 40.0758 227.819 40.2296 227.7 40.3492L210.729 55.826C210.61 55.9456 210.456 55.9968 210.303 55.9968V55.9968Z" fill="white"/>
<path d="M199.046 18.5L186.633 37.8425L187.422 38.3505L199.835 19.008L199.046 18.5Z" fill="white"/>
<path d="M187.397 38.9653C187.278 38.9653 187.159 38.9312 187.056 38.8628L186.272 38.3504C185.982 38.1625 185.896 37.7696 186.084 37.4621L198.484 18.1245C198.569 17.9879 198.723 17.8854 198.893 17.8512C199.064 17.8171 199.234 17.8512 199.371 17.9366L200.155 18.4491C200.445 18.637 200.531 19.0299 200.343 19.3374L187.943 38.6749C187.858 38.8116 187.704 38.9141 187.534 38.9483C187.483 38.9483 187.449 38.9483 187.397 38.9483V38.9653Z" fill="white"/>
<path d="M166.681 4.63521L159.68 26.5151L160.573 26.8019L167.574 4.92196L166.681 4.63521Z" fill="white"/>
<path d="M160.581 27.4518C160.581 27.4518 160.445 27.4518 160.394 27.4176L159.507 27.1272C159.353 27.0759 159.217 26.9564 159.132 26.8026C159.046 26.6489 159.046 26.478 159.097 26.3072L166.108 4.42439C166.21 4.08273 166.568 3.91191 166.909 4.0144L167.796 4.30481C167.95 4.35606 168.086 4.47564 168.171 4.62938C168.257 4.78312 168.257 4.95395 168.205 5.12477L161.195 27.0076C161.11 27.2809 160.854 27.4518 160.581 27.4518V27.4518Z" fill="white"/>
<path d="M23.4905 165.988L1.08594 170.925L1.28754 171.843L23.6921 166.905L23.4905 165.988Z" fill="white"/>
<path d="M1.29414 172.483C1.00418 172.483 0.731283 172.278 0.663059 171.988L0.458384 171.065C0.424272 170.895 0.458384 170.724 0.543665 170.587C0.628946 170.45 0.782452 170.348 0.953014 170.314L23.3648 165.377C23.706 165.308 24.0471 165.513 24.1324 165.872L24.337 166.795C24.3712 166.966 24.337 167.136 24.2518 167.273C24.1665 167.41 24.013 167.512 23.8424 167.546L1.43059 172.483C1.43059 172.483 1.34531 172.483 1.29414 172.483V172.483Z" fill="white"/>
<path d="M35.7783 192.867L15.3906 203.438L15.8219 204.273L36.2096 193.702L35.7783 192.867Z" fill="white"/>
<path d="M15.8057 204.923C15.8057 204.923 15.6693 204.923 15.6181 204.889C15.4646 204.838 15.3282 204.718 15.2429 204.564L14.8165 203.727C14.6459 203.42 14.7824 203.027 15.0894 202.873L35.4715 192.316C35.625 192.231 35.7956 192.231 35.9662 192.282C36.1197 192.333 36.2561 192.453 36.3414 192.607L36.7678 193.444C36.9384 193.751 36.8019 194.144 36.4949 194.298L16.1128 204.855C16.0275 204.906 15.9251 204.923 15.8228 204.923H15.8057Z" fill="white"/>
<path d="M52.1497 214.571L35.1875 230.04L35.8191 230.735L52.7813 215.266L52.1497 214.571Z" fill="white"/>
<path d="M35.8183 231.367C35.6477 231.367 35.4772 231.299 35.3407 231.162L34.7096 230.462C34.5902 230.342 34.5391 230.171 34.5391 230C34.5391 229.83 34.6243 229.676 34.7437 229.556L51.7146 214.079C51.9705 213.84 52.3798 213.857 52.6186 214.114L53.2497 214.814C53.3691 214.933 53.4203 215.104 53.4203 215.275C53.4203 215.446 53.335 215.6 53.2156 215.719L36.2447 231.196C36.1253 231.316 35.9718 231.367 35.8183 231.367V231.367Z" fill="white"/>
<path d="M75.0534 231.597L62.6406 250.94L63.4298 251.448L75.8425 232.105L75.0534 231.597Z" fill="white"/>
<path d="M63.4287 252.054C63.3093 252.054 63.1899 252.02 63.0875 251.951L62.303 251.439C62.013 251.251 61.9277 250.858 62.1153 250.551L74.5152 231.213C74.6005 231.077 74.754 230.974 74.9245 230.94C75.0951 230.906 75.2656 230.94 75.4021 231.025L76.1867 231.538C76.4766 231.726 76.5619 232.119 76.3743 232.426L63.9745 251.764C63.8892 251.9 63.7357 252.003 63.5651 252.037C63.5139 252.037 63.4798 252.037 63.4287 252.037V252.054Z" fill="white"/>
<path d="M101.869 243.096L94.8672 264.976L95.7605 265.262L102.762 243.382L101.869 243.096Z" fill="white"/>
<path d="M95.7688 265.925C95.7688 265.925 95.6324 265.925 95.5812 265.891L94.6943 265.601C94.5408 265.549 94.4043 265.43 94.319 265.276C94.2338 265.122 94.2338 264.951 94.2849 264.781L101.295 242.898C101.397 242.556 101.756 242.385 102.097 242.488L102.984 242.778C103.137 242.829 103.274 242.949 103.359 243.103C103.444 243.257 103.444 243.427 103.393 243.598L96.3828 265.481C96.2975 265.754 96.0417 265.925 95.7688 265.925V265.925Z" fill="white"/>
</g>
<defs>
<clipPath id="clip0_156_3423">
<rect width="262" height="269" fill="white"/>
</clipPath>
</defs>
</svg>
