<?xml version="1.0" encoding="utf-8"?>
<!-- Generator: Adobe Illustrator 26.5.0, SVG Export Plug-In . SVG Version: 6.00 Build 0)  -->
<svg version="1.1" id="Ebene_1" xmlns="http://www.w3.org/2000/svg" xmlns:xlink="http://www.w3.org/1999/xlink" x="0px" y="0px"
	 viewBox="0 0 912 951" style="enable-background:new 0 0 912 951;" xml:space="preserve">
<style type="text/css">
	.st0{clip-path:url(#SVGID_00000170963508326137185250000012982802182858661789_);}
	.st1{fill:#FFFFFF;}
</style>
<g>
	<defs>
		<rect id="SVGID_1_" x="75.5" y="91" width="755" height="769"/>
	</defs>
	<clipPath id="SVGID_00000147217609026250137780000014927350052238485176_">
		<use xlink:href="#SVGID_1_"  style="overflow:visible;"/>
	</clipPath>
	<g style="clip-path:url(#SVGID_00000147217609026250137780000014927350052238485176_);">
		<path class="st1" d="M263.5,521.1c-34.7,0-62.5-19.1-67.6-47.8c-3.7-20.5,8.4-47.9,31.6-54.3c4.5-1.2,27.7-6.6,40.4,9.6
			c9.4,12,8.6,30.2-2.1,44.1c-2.5,3.2-7.1,3.9-10.3,1.4c-3.2-2.4-3.9-7-1.4-10.3c6.5-8.5,7.4-19.6,2.2-26.3c-7.1-9.1-23-5-24.8-4.5
			c-16.2,4.5-23.2,25.2-21,37.6c4.3,23.8,29.3,38.4,60.8,35.4c24.5-2.3,40-14.9,56.4-28.3c16.2-13.1,32.9-26.8,57.8-28.8
			c26.2-2.1,42.2,8,57.7,17.7c14.8,9.3,28.8,18.1,52.3,16.8c20.7-1.1,33-9.1,46-17.6c13.1-8.6,26.7-17.5,48.7-19.7
			c36.6-3.6,75.7,14.4,116.4,53.4c2.9,2.8,3,7.5,0.2,10.4c-2.9,2.9-7.5,3-10.4,0.2c-37.4-35.9-72.6-52.5-104.7-49.4
			c-18.4,1.8-29.8,9.3-42,17.3c-14.1,9.2-28.6,18.8-53.3,20c-28.4,1.5-45.7-9.4-61-19c-14.7-9.2-27.4-17.2-48.6-15.5
			c-20.3,1.7-34.6,13.2-49.7,25.5c-16.6,13.5-35.4,28.8-64.3,31.5C269.4,520.9,266.4,521,263.5,521.1L263.5,521.1z"/>
		<path class="st1" d="M491.9,551.8c-22.5,0-38-9.2-53.1-18.2c-15.9-9.4-30.8-18.3-54.1-16.4c-14.2,1.2-28.1,6.1-41.5,14.6
			c-3.4,2.1-8,1.2-10.2-2.2c-2.2-3.4-1.2-8,2.3-10.1c15.4-9.8,31.6-15.4,48.2-16.8c28-2.3,46.5,8.6,62.9,18.4
			c14.4,8.5,28.1,16.6,47.4,16.1c18.2-0.5,28.9-7.7,41.4-16.1c13.1-8.8,28-18.8,53-21.2c24.1-2.3,49.4,4.6,75.3,20.8
			c3.4,2.1,4.5,6.7,2.3,10.1c-2.2,3.4-6.7,4.4-10.2,2.3c-23.1-14.4-45.2-20.7-66.1-18.6c-21.3,2.1-33.4,10.2-46.2,18.8
			c-13.2,8.8-26.8,18-49.2,18.6C493.5,551.8,492.7,551.8,491.9,551.8L491.9,551.8z"/>
		<path class="st1" d="M466.6,793.1c-18.3,0-33.1,14.7-33.1,32.9c0,18.2,14.8,32.9,33.1,32.9V793.1L466.6,793.1z"/>
		<path class="st1" d="M466.6,860c-18.9,0-34.3-15.3-34.3-34.1c0-18.8,15.4-34.1,34.3-34.1c0.7,0,1.2,0.5,1.2,1.2v65.7
			C467.9,859.5,467.3,860,466.6,860L466.6,860z M465.4,794.3c-17,0.6-30.6,14.6-30.6,31.6c0,17,13.6,31,30.6,31.6V794.3L465.4,794.3
			z"/>
		<path class="st1" d="M435.9,158c18.3,0,33.1-14.7,33.1-32.9c0-18.2-14.8-32.9-33.1-32.9V158z"/>
		<path class="st1" d="M435.9,159.2c-0.7,0-1.2-0.5-1.2-1.2V92.2c0-0.7,0.5-1.2,1.2-1.2c18.9,0,34.3,15.3,34.3,34.1
			C470.2,143.9,454.8,159.2,435.9,159.2z M437.1,93.5v63.2c17-0.6,30.6-14.6,30.6-31.6C467.7,108,454.1,94.1,437.1,93.5L437.1,93.5z
			"/>
		<path class="st1" d="M100.6,501.5c-12.8,0-23.3-10.4-23.3-23.1c0-12.8,10.4-23.1,23.3-23.1c12.9,0,23.3,10.4,23.3,23.1
			C123.9,491.1,113.5,501.5,100.6,501.5L100.6,501.5z M100.6,460.6c-9.9,0-17.9,8-17.9,17.8s8,17.8,17.9,17.8
			c9.9,0,17.9-8,17.9-17.8S110.5,460.6,100.6,460.6L100.6,460.6z"/>
		<path class="st1" d="M100.6,502.7c-13.5,0-24.5-10.9-24.5-24.4c0-13.4,11-24.4,24.5-24.4c13.5,0,24.5,10.9,24.5,24.4
			C125.1,491.7,114.1,502.7,100.6,502.7L100.6,502.7z M100.6,456.4c-12.1,0-22.1,9.8-22.1,21.9s9.9,21.9,22.1,21.9
			c12.2,0,22.1-9.8,22.1-21.9S112.8,456.4,100.6,456.4L100.6,456.4z M100.6,497.3c-10.5,0-19.1-8.5-19.1-19c0-10.5,8.6-19,19.1-19
			c10.6,0,19.1,8.5,19.1,19C119.7,488.8,111.2,497.3,100.6,497.3L100.6,497.3z M100.6,461.8c-9.2,0-16.7,7.4-16.7,16.6
			c0,9.1,7.5,16.6,16.7,16.6c9.2,0,16.7-7.4,16.7-16.6C117.3,469.2,109.8,461.8,100.6,461.8L100.6,461.8z"/>
		<path class="st1" d="M808.1,496c11.4,0,20.6-9.2,20.6-20.5c0-11.3-9.2-20.5-20.6-20.5c-11.4,0-20.6,9.2-20.6,20.5
			C787.5,486.8,796.7,496,808.1,496z"/>
		<path class="st1" d="M808.1,497.2c-12,0-21.8-9.7-21.8-21.7c0-12,9.8-21.7,21.8-21.7c12,0,21.8,9.7,21.8,21.7
			C829.9,487.4,820.1,497.2,808.1,497.2z M808.1,456.3c-10.7,0-19.4,8.6-19.4,19.2c0,10.6,8.7,19.2,19.4,19.2
			c10.7,0,19.4-8.6,19.4-19.2C827.5,464.9,818.8,456.3,808.1,456.3z"/>
		<path class="st1" d="M78,371.3l-0.6,2.6l64.6,14.1l0.6-2.6L78,371.3z"/>
		<path class="st1" d="M142,389.9c0,0-0.2,0-0.4,0l-64.6-14.2c-1-0.2-1.6-1.2-1.4-2.2l0.6-2.6c0.1-0.5,0.4-0.9,0.8-1.2
			c0.4-0.2,0.9-0.3,1.4-0.2l64.6,14.1c1,0.2,1.6,1.2,1.4,2.2l-0.6,2.6c-0.1,0.5-0.4,0.9-0.8,1.2C142.6,389.8,142.2,389.9,142,389.9
			L142,389.9z"/>
		<path class="st1" d="M119.8,278.6l-1.2,2.4l58.8,30.2l1.2-2.4L119.8,278.6z"/>
		<path class="st1" d="M177.2,313.1c-0.3,0-0.6,0-0.8-0.2l-58.7-30.2c-0.9-0.4-1.3-1.6-0.8-2.4l1.2-2.4c0.2-0.4,0.6-0.8,1.1-0.9
			c0.5-0.1,1-0.1,1.4,0.1l58.7,30.2c0.9,0.4,1.3,1.6,0.8,2.4l-1.2,2.4c-0.2,0.4-0.6,0.8-1.1,0.9C177.6,313,177.4,313.1,177.2,313.1
			L177.2,313.1z"/>
		<path class="st1" d="M177.4,203l-1.8,2l48.9,44.2l1.8-2L177.4,203z"/>
		<path class="st1" d="M224.5,251.1c-0.4,0-0.9-0.1-1.2-0.5l-48.9-44.2c-0.3-0.3-0.6-0.8-0.6-1.3c0-0.5,0.1-1,0.5-1.3l1.8-2
			c0.7-0.7,1.9-0.8,2.6-0.1l48.9,44.2c0.3,0.3,0.6,0.8,0.6,1.3c0,0.5-0.1,1-0.5,1.3l-1.8,2C225.5,250.9,225,251.1,224.5,251.1
			L224.5,251.1z"/>
		<path class="st1" d="M256.9,143.8l-2.3,1.5l35.8,55.3l2.3-1.5L256.9,143.8z"/>
		<path class="st1" d="M290.4,202.4c0,0-0.2,0-0.4,0c-0.5-0.1-0.9-0.4-1.2-0.8l-35.7-55.3c-0.5-0.8-0.3-2,0.5-2.5l2.3-1.5
			c0.4-0.2,0.9-0.3,1.4-0.2c0.4,0.1,0.9,0.4,1.2,0.8l35.7,55.3c0.5,0.8,0.3,2-0.5,2.5l-2.3,1.5C291.1,202.3,290.8,202.4,290.4,202.4
			L290.4,202.4z"/>
		<path class="st1" d="M350.1,104.2l-2.6,0.8l20.2,62.5l2.6-0.8L350.1,104.2z"/>
		<path class="st1" d="M367.7,169.5c-0.8,0-1.5-0.5-1.8-1.3l-20.2-62.6c-0.1-0.4-0.1-1,0.1-1.4c0.2-0.4,0.6-0.8,1.1-0.9l2.6-0.8
			c1-0.3,2,0.2,2.3,1.2l20.2,62.6c0.1,0.4,0.1,1-0.1,1.4c-0.2,0.4-0.6,0.8-1.1,0.9l-2.6,0.8C368.3,169.4,367.9,169.5,367.7,169.5z"
			/>
		<path class="st1" d="M764,562.8l-0.6,2.6l64.6,14.1l0.6-2.6L764,562.8z"/>
		<path class="st1" d="M828.1,581.4c0,0-0.2,0-0.4,0l-64.6-14.1c-0.5-0.1-0.9-0.4-1.2-0.8c-0.3-0.4-0.3-0.9-0.2-1.4l0.6-2.6
			c0.2-1,1.2-1.6,2.2-1.4l64.6,14.1c0.5,0.1,0.9,0.4,1.2,0.8c0.3,0.4,0.3,0.9,0.2,1.4l-0.6,2.6C829.7,580.8,829,581.4,828.1,581.4
			L828.1,581.4z"/>
		<path class="st1" d="M728.8,639.8l-1.2,2.4l58.8,30.2l1.2-2.4L728.8,639.8z"/>
		<path class="st1" d="M786.3,674.1c-0.3,0-0.6,0-0.8-0.2l-58.7-30.2c-0.9-0.4-1.3-1.6-0.8-2.4l1.2-2.4c0.2-0.4,0.6-0.8,1.1-0.9
			c0.5-0.1,1-0.1,1.4,0.1l58.7,30.2c0.9,0.4,1.3,1.6,0.8,2.4l-1.2,2.4c-0.2,0.4-0.6,0.8-1.1,0.9
			C786.7,674.1,786.5,674.1,786.3,674.1L786.3,674.1z"/>
		<path class="st1" d="M681.6,701.7l-1.8,2l48.9,44.2l1.8-2L681.6,701.7z"/>
		<path class="st1" d="M728.6,749.7c-0.4,0-0.9-0.1-1.2-0.5L678.5,705c-0.3-0.3-0.6-0.8-0.6-1.3s0.1-1,0.5-1.3l1.8-2
			c0.7-0.7,1.9-0.8,2.6-0.1l48.9,44.2c0.3,0.3,0.6,0.8,0.6,1.3c0,0.5-0.1,1-0.5,1.3l-1.8,2C729.6,749.5,729.1,749.7,728.6,749.7z"/>
		<path class="st1" d="M615.6,750.2l-2.3,1.5l35.8,55.3l2.3-1.5L615.6,750.2z"/>
		<path class="st1" d="M649,808.9c0,0-0.2,0-0.4,0c-0.5-0.1-0.9-0.4-1.2-0.8l-35.7-55.3c-0.5-0.8-0.3-2,0.5-2.5l2.3-1.5
			c0.4-0.2,0.9-0.3,1.4-0.2c0.5,0.1,0.9,0.4,1.2,0.8l35.7,55.3c0.5,0.8,0.3,2-0.5,2.5l-2.3,1.5C649.7,808.8,649.4,808.9,649,808.9
			L649,808.9z"/>
		<path class="st1" d="M538.2,783.3l-2.6,0.8l20.2,62.5l2.6-0.8L538.2,783.3z"/>
		<path class="st1" d="M555.8,848.5c-0.8,0-1.5-0.5-1.8-1.3l-20.2-62.6c-0.1-0.4-0.1-1,0.1-1.4c0.2-0.4,0.6-0.8,1.1-0.9l2.6-0.8
			c1-0.3,2,0.2,2.3,1.2l20.2,62.6c0.1,0.4,0.1,1-0.1,1.4c-0.2,0.4-0.6,0.8-1.1,0.9l-2.6,0.8C556.4,848.4,556,848.5,555.8,848.5
			L555.8,848.5z"/>
		<path class="st1" d="M828.1,371.4l-64.6,14.1l0.6,2.6l64.6-14.1L828.1,371.4z"/>
		<path class="st1" d="M764,389.9c-0.3,0-0.7-0.1-1-0.3c-0.4-0.2-0.7-0.7-0.8-1.2l-0.6-2.6c-0.2-1,0.4-2,1.4-2.2l64.6-14.1
			c1-0.2,2,0.4,2.2,1.4l0.6,2.6c0.1,0.5,0,1-0.2,1.4c-0.2,0.4-0.7,0.7-1.2,0.8l-64.6,14.1C764.5,389.8,764.2,389.8,764,389.9
			L764,389.9z"/>
		<path class="st1" d="M786.3,278.6l-58.8,30.2l1.2,2.4l58.8-30.2L786.3,278.6z"/>
		<path class="st1" d="M728.8,313.1c0,0-0.4,0-0.5-0.1c-0.4-0.1-0.8-0.5-1.1-0.9l-1.2-2.4c-0.5-0.9-0.1-2,0.8-2.4l58.7-30.2
			c0.4-0.2,0.9-0.2,1.4-0.1c0.4,0.1,0.8,0.5,1.1,0.9l1.2,2.4c0.5,0.9,0.1,2-0.8,2.4l-58.7,30.2C729.4,313,729.1,313.1,728.8,313.1
			L728.8,313.1z"/>
		<path class="st1" d="M728.6,203l-48.9,44.2l1.8,2l48.9-44.2L728.6,203z"/>
		<path class="st1" d="M681.5,251.1c-0.5,0-1-0.2-1.4-0.6l-1.8-2c-0.3-0.3-0.5-0.8-0.5-1.3c0-0.5,0.2-0.9,0.6-1.3l48.9-44.2
			c0.7-0.7,1.9-0.6,2.6,0.1l1.8,2c0.3,0.3,0.5,0.8,0.5,1.3c0,0.5-0.2,0.9-0.6,1.3l-48.9,44.2C682.4,250.9,682,251.1,681.5,251.1
			L681.5,251.1z"/>
		<path class="st1" d="M649.1,143.9l-35.8,55.3l2.3,1.5l35.8-55.3L649.1,143.9z"/>
		<path class="st1" d="M615.5,202.4c-0.3,0-0.7-0.1-1-0.3l-2.3-1.5c-0.8-0.5-1.1-1.7-0.5-2.5l35.7-55.3c0.2-0.4,0.7-0.7,1.2-0.8
			c0.5-0.1,1,0,1.4,0.2l2.3,1.5c0.8,0.5,1.1,1.7,0.5,2.5l-35.7,55.3c-0.2,0.4-0.7,0.7-1.2,0.8C615.8,202.3,615.7,202.3,615.5,202.4
			L615.5,202.4z"/>
		<path class="st1" d="M555.8,104.3l-20.2,62.5l2.6,0.8l20.2-62.5L555.8,104.3z"/>
		<path class="st1" d="M538.3,169.5c0,0-0.4,0-0.5-0.1l-2.6-0.8c-0.4-0.1-0.8-0.5-1.1-0.9c-0.2-0.4-0.2-0.9-0.1-1.4l20.2-62.6
			c0.3-1,1.3-1.5,2.3-1.2l2.6,0.8c0.4,0.1,0.8,0.5,1.1,0.9c0.2,0.4,0.2,0.9,0.1,1.4L540,168.2C539.8,169,539,169.5,538.3,169.5
			L538.3,169.5z"/>
		<path class="st1" d="M143.2,565.5l-64.6,14.1l0.6,2.6l64.6-14.1L143.2,565.5z"/>
		<path class="st1" d="M79.2,584.1c-0.8,0-1.6-0.6-1.8-1.4l-0.6-2.6c-0.1-0.5,0-1,0.2-1.4c0.2-0.4,0.7-0.7,1.2-0.8l64.6-14.1
			c1-0.2,2,0.4,2.2,1.4l0.6,2.6c0.1,0.5,0,1-0.2,1.4c-0.2,0.4-0.7,0.7-1.2,0.8l-64.6,14.1C79.6,584.1,79.4,584.1,79.2,584.1
			L79.2,584.1z"/>
		<path class="st1" d="M178.6,642.4l-58.8,30.2l1.2,2.4l58.7-30.2L178.6,642.4z"/>
		<path class="st1" d="M121.1,676.8c0,0-0.4,0-0.5-0.1c-0.4-0.1-0.8-0.5-1.1-0.9l-1.2-2.4c-0.5-0.9-0.1-2,0.8-2.4l58.7-30.2
			c0.4-0.2,0.9-0.2,1.4-0.1c0.4,0.1,0.8,0.5,1.1,0.9l1.2,2.4c0.5,0.9,0.1,2-0.8,2.4l-58.7,30.2C121.7,676.8,121.4,676.8,121.1,676.8
			L121.1,676.8z"/>
		<path class="st1" d="M225.8,704.4l-48.9,44.2l1.8,2l48.9-44.2L225.8,704.4z"/>
		<path class="st1" d="M178.7,752.4c-0.5,0-1-0.2-1.4-0.6l-1.8-2c-0.3-0.3-0.5-0.8-0.5-1.3c0-0.5,0.2-0.9,0.6-1.3l48.9-44.2
			c0.7-0.7,1.9-0.6,2.6,0.1l1.8,2c0.3,0.3,0.5,0.8,0.5,1.3c0,0.5-0.2,0.9-0.6,1.3l-48.9,44.2C179.6,752.3,179.2,752.4,178.7,752.4
			L178.7,752.4z"/>
		<path class="st1" d="M291.8,753.1L256,808.4l2.3,1.5l35.8-55.3L291.8,753.1z"/>
		<path class="st1" d="M258.3,811.6c-0.3,0-0.7-0.1-1-0.3l-2.3-1.5c-0.8-0.5-1.1-1.7-0.5-2.5l35.7-55.3c0.2-0.4,0.7-0.7,1.2-0.8
			c0.5-0.1,1,0,1.4,0.2l2.3,1.5c0.8,0.5,1.1,1.7,0.5,2.5l-35.7,55.3c-0.2,0.4-0.7,0.7-1.2,0.8C258.5,811.5,258.4,811.5,258.3,811.6
			L258.3,811.6z"/>
		<path class="st1" d="M369.1,785.9l-20.2,62.5l2.6,0.8l20.2-62.5L369.1,785.9z"/>
		<path class="st1" d="M351.5,851.2c0,0-0.4,0-0.5-0.1l-2.6-0.8c-0.4-0.1-0.8-0.5-1.1-0.9c-0.2-0.4-0.2-0.9-0.1-1.4l20.2-62.6
			c0.3-1,1.3-1.5,2.3-1.2l2.6,0.8c0.4,0.1,0.8,0.5,1.1,0.9c0.2,0.4,0.2,0.9,0.1,1.4l-20.2,62.6C353,850.7,352.3,851.2,351.5,851.2
			L351.5,851.2z"/>
	</g>
</g>
</svg>
