<?xml version="1.0" encoding="utf-8"?>
<!-- Generator: Adobe Illustrator 26.5.0, SVG Export Plug-In . SVG Version: 6.00 Build 0)  -->
<svg version="1.1" id="Ebene_1" xmlns="http://www.w3.org/2000/svg" xmlns:xlink="http://www.w3.org/1999/xlink" x="0px" y="0px"
	 viewBox="0 0 319 326" style="enable-background:new 0 0 319 326;" xml:space="preserve">
<style type="text/css">
	.st0{clip-path:url(#SVGID_00000063632702834854375380000005795344895502231680_);}
	.st1{fill:#FFFFFF;}
</style>
<g>
	<defs>
		<rect id="SVGID_1_" width="319" height="326"/>
	</defs>
	<clipPath id="SVGID_00000178176392909426556230000005734061785395858071_">
		<use xlink:href="#SVGID_1_"  style="overflow:visible;"/>
	</clipPath>
	<g style="clip-path:url(#SVGID_00000178176392909426556230000005734061785395858071_);">
		<path class="st1" d="M160,119.7c-12.6,0-22.8-8.3-22.8-18.5c0-10.2,10.3-18.5,22.8-18.5c12.6,0,22.8,8.3,22.8,18.5
			C182.9,111.4,172.6,119.7,160,119.7z M160,88.9c-9.2,0-16.6,5.5-16.6,12.3c0,6.8,7.5,12.3,16.6,12.3s16.6-5.5,16.6-12.3
			C176.6,94.4,169.2,88.9,160,88.9z"/>
		<path class="st1" d="M160,239c-28,0-49.9-13.9-49.9-31.7c0-22,19.5-29.7,39.3-35.3c-14.7-4.4-27.2-10.6-27.4-25
			c0-4.2,2-8.4,5.8-12.3c7.4-7.4,20-12.2,32.2-12.2c19.1,0,37.6,11.8,38,24.3c0.4,14-11.1,20.4-25.2,25.1
			c19,5.4,37.1,13.4,37.1,35.3c0.3,4.9-2,10-6.5,14.8C193.9,232.2,176.4,239,160,239L160,239z M161.2,175.2
			c-0.9,0.2-1.7,0.5-2.6,0.7c-20.8,5.5-42.3,11.3-42.3,31.4c0,13.8,20,25.5,43.7,25.5c14.6,0,30.6-6.2,38.9-15
			c3.4-3.6,5-7.1,4.8-10.3v-0.2C203.6,186.2,182.1,180.6,161.2,175.2L161.2,175.2z M160,128.7c-10.5,0-21.6,4.2-27.8,10.3
			c-1.8,1.8-4,4.7-4,7.8c0.1,13,15.2,17.3,33,21.9c19.4-5.3,31-10,30.6-21.8C191.5,138.8,176.8,128.7,160,128.7L160,128.7z"/>
		<path class="st1" d="M165.3,297.6c-7.7,0-14,6.2-14,13.9c0,7.7,6.3,13.9,14,13.9V297.6L165.3,297.6z"/>
		<path class="st1" d="M165.3,326c-8,0-14.5-6.5-14.5-14.5c0-8,6.5-14.5,14.5-14.5c0.3,0,0.5,0.2,0.5,0.5v27.9
			C165.8,325.8,165.6,326,165.3,326L165.3,326z M164.7,298.2c-7.2,0.3-12.9,6.2-12.9,13.4c0,7.2,5.8,13.1,12.9,13.4V298.2
			L164.7,298.2z"/>
		<path class="st1" d="M152.3,28.4c7.7,0,14-6.2,14-13.9c0-7.7-6.3-13.9-14-13.9V28.4z"/>
		<path class="st1" d="M152.3,28.9c-0.3,0-0.5-0.2-0.5-0.5V0.5c0-0.3,0.2-0.5,0.5-0.5c8,0,14.5,6.5,14.5,14.5
			C166.8,22.4,160.3,28.9,152.3,28.9z M152.8,1.1v26.8c7.2-0.3,12.9-6.2,12.9-13.4C165.7,7.2,160,1.3,152.8,1.1L152.8,1.1z"/>
		<path class="st1" d="M10.6,174c-5.4,0-9.8-4.4-9.8-9.8s4.4-9.8,9.8-9.8c5.4,0,9.8,4.4,9.8,9.8S16.1,174,10.6,174L10.6,174z
			 M10.6,156.7c-4.2,0-7.6,3.4-7.6,7.5s3.4,7.5,7.6,7.5c4.2,0,7.6-3.4,7.6-7.5S14.8,156.7,10.6,156.7L10.6,156.7z"/>
		<path class="st1" d="M10.6,174.5c-5.7,0-10.4-4.6-10.4-10.3c0-5.7,4.7-10.3,10.4-10.3c5.7,0,10.4,4.6,10.4,10.3
			C21,169.9,16.3,174.5,10.6,174.5L10.6,174.5z M10.6,154.9c-5.1,0-9.3,4.2-9.3,9.3s4.2,9.3,9.3,9.3c5.2,0,9.3-4.2,9.3-9.3
			S15.8,154.9,10.6,154.9L10.6,154.9z M10.6,172.2c-4.4,0-8.1-3.6-8.1-8.1s3.6-8.1,8.1-8.1s8.1,3.6,8.1,8.1S15.1,172.2,10.6,172.2
			L10.6,172.2z M10.6,157.2c-3.9,0-7,3.1-7,7c0,3.9,3.2,7,7,7c3.9,0,7-3.1,7-7C17.7,160.3,14.5,157.2,10.6,157.2L10.6,157.2z"/>
		<path class="st1" d="M309.5,171.7c4.8,0,8.7-3.9,8.7-8.7c0-4.8-3.9-8.7-8.7-8.7c-4.8,0-8.7,3.9-8.7,8.7
			C300.8,167.8,304.7,171.7,309.5,171.7z"/>
		<path class="st1" d="M309.5,172.2c-5.1,0-9.2-4.1-9.2-9.2c0-5.1,4.1-9.2,9.2-9.2s9.2,4.1,9.2,9.2
			C318.8,168.1,314.6,172.2,309.5,172.2z M309.5,154.9c-4.5,0-8.2,3.7-8.2,8.2c0,4.5,3.7,8.2,8.2,8.2c4.5,0,8.2-3.7,8.2-8.2
			C317.7,158.5,314,154.9,309.5,154.9z"/>
		<path class="st1" d="M1,118.8l-0.2,1.1l27.3,6l0.2-1.1L1,118.8z"/>
		<path class="st1" d="M28.1,126.7c0,0-0.1,0-0.2,0l-27.3-6c-0.4-0.1-0.7-0.5-0.6-0.9l0.2-1.1c0-0.2,0.2-0.4,0.3-0.5
			c0.2-0.1,0.4-0.1,0.6-0.1l27.3,6c0.4,0.1,0.7,0.5,0.6,0.9l-0.2,1.1c0,0.2-0.2,0.4-0.3,0.5C28.3,126.7,28.2,126.7,28.1,126.7
			L28.1,126.7z"/>
		<path class="st1" d="M18.7,79.5l-0.5,1L43,93.4l0.5-1L18.7,79.5z"/>
		<path class="st1" d="M43,94.1c-0.1,0-0.2,0-0.4-0.1L17.8,81.3c-0.4-0.2-0.5-0.7-0.3-1l0.5-1c0.1-0.2,0.2-0.3,0.5-0.4
			c0.2-0.1,0.4,0,0.6,0l24.8,12.8c0.4,0.2,0.5,0.7,0.3,1l-0.5,1c-0.1,0.2-0.2,0.3-0.5,0.4C43.2,94.1,43.1,94.1,43,94.1L43,94.1z"/>
		<path class="st1" d="M43,47.5l-0.8,0.8l20.7,18.7l0.8-0.8L43,47.5z"/>
		<path class="st1" d="M62.9,67.9c-0.2,0-0.4-0.1-0.5-0.2L41.8,48.9c-0.1-0.1-0.2-0.3-0.2-0.5c0-0.2,0.1-0.4,0.2-0.6l0.8-0.8
			c0.3-0.3,0.8-0.3,1.1,0l20.7,18.8c0.1,0.1,0.2,0.3,0.2,0.5s-0.1,0.4-0.2,0.6l-0.8,0.8C63.4,67.8,63.2,67.9,62.9,67.9L62.9,67.9z"
			/>
		<path class="st1" d="M76.7,22.4l-1,0.6l15.1,23.4l1-0.6L76.7,22.4z"/>
		<path class="st1" d="M90.8,47.2c0,0-0.1,0-0.2,0c-0.2,0-0.4-0.2-0.5-0.3L75.1,23.5c-0.2-0.4-0.1-0.8,0.2-1.1l1-0.6
			c0.2-0.1,0.4-0.1,0.6-0.1c0.2,0,0.4,0.2,0.5,0.3l15.1,23.4c0.2,0.4,0.1,0.8-0.2,1.1l-1,0.6C91.1,47.2,91,47.2,90.8,47.2L90.8,47.2
			z"/>
		<path class="st1" d="M116,5.6L115,5.9l8.5,26.5l1.1-0.3L116,5.6z"/>
		<path class="st1" d="M123.5,33.3c-0.3,0-0.6-0.2-0.7-0.5l-8.5-26.5c-0.1-0.2,0-0.4,0-0.6c0.1-0.2,0.2-0.3,0.5-0.4l1.1-0.4
			c0.4-0.1,0.9,0.1,1,0.5l8.5,26.5c0.1,0.2,0,0.4,0,0.6c-0.1,0.2-0.2,0.3-0.5,0.4l-1.1,0.4C123.7,33.2,123.5,33.3,123.5,33.3z"/>
		<path class="st1" d="M290.9,200l-0.2,1.1l27.3,6l0.2-1.1L290.9,200z"/>
		<path class="st1" d="M318,207.9c0,0-0.1,0-0.2,0l-27.3-6c-0.2,0-0.4-0.2-0.5-0.3c-0.1-0.2-0.1-0.4-0.1-0.6l0.2-1.1
			c0.1-0.4,0.5-0.7,0.9-0.6l27.3,6c0.2,0,0.4,0.2,0.5,0.3c0.1,0.2,0.1,0.4,0.1,0.6l-0.2,1.1C318.7,207.6,318.4,207.9,318,207.9
			L318,207.9z"/>
		<path class="st1" d="M276,232.6l-0.5,1l24.8,12.8l0.5-1L276,232.6z"/>
		<path class="st1" d="M300.3,247.2c-0.1,0-0.2,0-0.4-0.1l-24.8-12.8c-0.4-0.2-0.5-0.7-0.3-1l0.5-1c0.1-0.2,0.2-0.3,0.5-0.4
			c0.2-0.1,0.4,0,0.6,0l24.8,12.8c0.4,0.2,0.5,0.7,0.3,1l-0.5,1c-0.1,0.2-0.2,0.3-0.5,0.4C300.5,247.2,300.4,247.2,300.3,247.2
			L300.3,247.2z"/>
		<path class="st1" d="M256.1,258.9l-0.8,0.8l20.7,18.7l0.8-0.8L256.1,258.9z"/>
		<path class="st1" d="M276,279.3c-0.2,0-0.4-0.1-0.5-0.2l-20.7-18.8c-0.1-0.1-0.2-0.3-0.2-0.5s0.1-0.4,0.2-0.6l0.8-0.8
			c0.3-0.3,0.8-0.3,1.1,0l20.7,18.8c0.1,0.1,0.2,0.3,0.2,0.5s-0.1,0.4-0.2,0.6l-0.8,0.8C276.4,279.2,276.2,279.3,276,279.3z"/>
		<path class="st1" d="M228.2,279.5l-1,0.6l15.1,23.4l1-0.6L228.2,279.5z"/>
		<path class="st1" d="M242.3,304.3c0,0-0.1,0-0.2,0c-0.2,0-0.4-0.2-0.5-0.3l-15.1-23.4c-0.2-0.4-0.1-0.8,0.2-1.1l1-0.6
			c0.2-0.1,0.4-0.1,0.6-0.1c0.2,0,0.4,0.2,0.5,0.3l15.1,23.4c0.2,0.4,0.1,0.8-0.2,1.1l-1,0.6C242.6,304.3,242.5,304.3,242.3,304.3
			L242.3,304.3z"/>
		<path class="st1" d="M195.5,293.5l-1.1,0.3l8.5,26.5l1.1-0.3L195.5,293.5z"/>
		<path class="st1" d="M203,321.1c-0.3,0-0.6-0.2-0.7-0.5l-8.5-26.5c-0.1-0.2,0-0.4,0-0.6c0.1-0.2,0.2-0.3,0.5-0.4l1.1-0.4
			c0.4-0.1,0.9,0.1,1,0.5l8.5,26.5c0.1,0.2,0,0.4,0,0.6c-0.1,0.2-0.2,0.3-0.5,0.4l-1.1,0.4C203.2,321.1,203,321.1,203,321.1
			L203,321.1z"/>
		<path class="st1" d="M318,118.9l-27.3,6l0.2,1.1l27.3-6L318,118.9z"/>
		<path class="st1" d="M290.9,126.7c-0.1,0-0.3,0-0.4-0.1c-0.2-0.1-0.3-0.3-0.3-0.5l-0.2-1.1c-0.1-0.4,0.2-0.8,0.6-0.9l27.3-6
			c0.4-0.1,0.8,0.2,0.9,0.6l0.2,1.1c0,0.2,0,0.4-0.1,0.6c-0.1,0.2-0.3,0.3-0.5,0.3l-27.3,6C291.1,126.7,291,126.7,290.9,126.7
			L290.9,126.7z"/>
		<path class="st1" d="M300.3,79.5l-24.8,12.8l0.5,1l24.8-12.8L300.3,79.5z"/>
		<path class="st1" d="M276,94.1c0,0-0.2,0-0.2,0c-0.2-0.1-0.4-0.2-0.5-0.4l-0.5-1c-0.2-0.4,0-0.8,0.3-1L300,78.9
			c0.2-0.1,0.4-0.1,0.6,0c0.2,0.1,0.4,0.2,0.5,0.4l0.5,1c0.2,0.4,0,0.8-0.3,1l-24.8,12.8C276.3,94.1,276.2,94.1,276,94.1L276,94.1z"
			/>
		<path class="st1" d="M275.9,47.5l-20.7,18.7l0.8,0.8l20.7-18.7L275.9,47.5z"/>
		<path class="st1" d="M256.1,67.9c-0.2,0-0.4-0.1-0.6-0.2l-0.8-0.8c-0.1-0.1-0.2-0.4-0.2-0.6s0.1-0.4,0.2-0.5l20.7-18.8
			c0.3-0.3,0.8-0.3,1.1,0l0.8,0.8c0.1,0.1,0.2,0.4,0.2,0.6c0,0.2-0.1,0.4-0.2,0.5l-20.7,18.8C256.4,67.8,256.2,67.9,256.1,67.9
			L256.1,67.9z"/>
		<path class="st1" d="M242.3,22.4l-15.1,23.4l1,0.6L243.3,23L242.3,22.4z"/>
		<path class="st1" d="M228.2,47.2c-0.1,0-0.3,0-0.4-0.1l-1-0.6c-0.4-0.2-0.5-0.7-0.2-1.1L241.7,22c0.1-0.2,0.3-0.3,0.5-0.3
			c0.2,0,0.4,0,0.6,0.1l1,0.6c0.4,0.2,0.5,0.7,0.2,1.1l-15.1,23.4c-0.1,0.2-0.3,0.3-0.5,0.3C228.3,47.2,228.2,47.2,228.2,47.2
			L228.2,47.2z"/>
		<path class="st1" d="M202.9,5.6l-8.5,26.5l1.1,0.3L204,6L202.9,5.6z"/>
		<path class="st1" d="M195.5,33.3c0,0-0.2,0-0.2,0l-1.1-0.4c-0.2-0.1-0.4-0.2-0.5-0.4c-0.1-0.2-0.1-0.4,0-0.6l8.5-26.5
			c0.1-0.4,0.6-0.6,1-0.5l1.1,0.4c0.2,0.1,0.4,0.2,0.5,0.4c0.1,0.2,0.1,0.4,0,0.6l-8.5,26.5C196.2,33.1,195.9,33.3,195.5,33.3
			L195.5,33.3z"/>
		<path class="st1" d="M28.6,201.2l-27.3,6l0.2,1.1l27.3-6L28.6,201.2z"/>
		<path class="st1" d="M1.6,209c-0.4,0-0.7-0.2-0.8-0.6l-0.2-1.1c0-0.2,0-0.4,0.1-0.6c0.1-0.2,0.3-0.3,0.5-0.3l27.3-6
			c0.4-0.1,0.8,0.2,0.9,0.6l0.2,1.1c0,0.2,0,0.4-0.1,0.6c-0.1,0.2-0.3,0.3-0.5,0.3l-27.3,6C1.7,209,1.6,209,1.6,209L1.6,209z"/>
		<path class="st1" d="M43.6,233.7l-24.8,12.8l0.5,1l24.8-12.8L43.6,233.7z"/>
		<path class="st1" d="M19.3,248.3c0,0-0.2,0-0.2,0c-0.2-0.1-0.4-0.2-0.5-0.4l-0.5-1c-0.2-0.4,0-0.8,0.3-1l24.8-12.8
			c0.2-0.1,0.4-0.1,0.6,0c0.2,0.1,0.4,0.2,0.5,0.4l0.5,1c0.2,0.4,0,0.8-0.3,1l-24.8,12.8C19.5,248.3,19.4,248.3,19.3,248.3
			L19.3,248.3z"/>
		<path class="st1" d="M63.5,260l-20.7,18.7l0.8,0.8l20.7-18.7L63.5,260z"/>
		<path class="st1" d="M43.6,280.4c-0.2,0-0.4-0.1-0.6-0.2l-0.8-0.8c-0.1-0.1-0.2-0.4-0.2-0.6s0.1-0.4,0.2-0.5L63,259.4
			c0.3-0.3,0.8-0.3,1.1,0l0.8,0.8c0.1,0.1,0.2,0.4,0.2,0.6s-0.1,0.4-0.2,0.5l-20.7,18.8C44,280.3,43.8,280.4,43.6,280.4L43.6,280.4z
			"/>
		<path class="st1" d="M91.4,280.7l-15.1,23.4l1,0.6l15.1-23.4L91.4,280.7z"/>
		<path class="st1" d="M77.2,305.5c-0.1,0-0.3,0-0.4-0.1l-1-0.6c-0.4-0.2-0.5-0.7-0.2-1.1l15.1-23.4c0.1-0.2,0.3-0.3,0.5-0.3
			c0.2,0,0.4,0,0.6,0.1l1,0.6c0.4,0.2,0.5,0.7,0.2,1.1l-15.1,23.4c-0.1,0.2-0.3,0.3-0.5,0.3C77.3,305.4,77.3,305.4,77.2,305.5
			L77.2,305.5z"/>
		<path class="st1" d="M124,294.6l-8.5,26.5l1.1,0.3l8.5-26.5L124,294.6z"/>
		<path class="st1" d="M116.6,322.3c0,0-0.2,0-0.2,0l-1.1-0.4c-0.2-0.1-0.4-0.2-0.5-0.4c-0.1-0.2-0.1-0.4,0-0.6l8.5-26.5
			c0.1-0.4,0.6-0.6,1-0.5l1.1,0.4c0.2,0.1,0.4,0.2,0.5,0.4c0.1,0.2,0.1,0.4,0,0.6l-8.5,26.5C117.2,322.1,116.9,322.3,116.6,322.3
			L116.6,322.3z"/>
	</g>
</g>
</svg>
