<?xml version="1.0" encoding="utf-8"?>
<!-- Generator: Adobe Illustrator 26.5.0, SVG Export Plug-In . SVG Version: 6.00 Build 0)  -->
<svg version="1.1" id="Ebene_1" xmlns="http://www.w3.org/2000/svg" xmlns:xlink="http://www.w3.org/1999/xlink" x="0px" y="0px"
	 viewBox="0 0 912 951" style="enable-background:new 0 0 912 951;" xml:space="preserve">
<style type="text/css">
	.st0{clip-path:url(#SVGID_00000051372443683089093190000004891366339573833601_);}
	.st1{fill:#FFFFFF;}
</style>
<g>
	<defs>
		<rect id="SVGID_1_" x="74" y="84" width="763" height="782"/>
	</defs>
	<clipPath id="SVGID_00000163057240652279983630000005795239654552489856_">
		<use xlink:href="#SVGID_1_"  style="overflow:visible;"/>
	</clipPath>
	<g style="clip-path:url(#SVGID_00000163057240652279983630000005795239654552489856_);">
		<path class="st1" d="M385.2,643.9c-4.1,0-7.5-3.4-7.4-7.5l1.2-342.6c0-4.1,3.3-7.4,7.5-7.4c4.1,0,7.5,3.4,7.4,7.5l-1.2,342.6
			C392.6,640.6,389.3,643.9,385.2,643.9L385.2,643.9z"/>
		<path class="st1" d="M534.2,646.5c-4.1,0-7.4-3.3-7.5-7.4l-2.3-243.8c0-4.1,3.3-7.5,7.4-7.5c4.2,0,7.5,3.3,7.5,7.4l2.3,243.8
			C541.6,643.1,538.3,646.5,534.2,646.5L534.2,646.5L534.2,646.5z"/>
		<path class="st1" d="M386.5,383.7c-47.2,0-85.6-38.4-85.6-85.6c0-4.1,3.3-7.4,7.5-7.4c4.1,0,7.5,3.3,7.5,7.4
			c0,39,31.7,70.7,70.7,70.7s70.7-31.7,70.7-70.7c0-4.1,3.3-7.4,7.5-7.4c4.1,0,7.5,3.3,7.5,7.4C472.1,345.3,433.7,383.7,386.5,383.7
			L386.5,383.7z"/>
		<path class="st1" d="M532.1,535.1c-1.9,0-3.9-0.7-5.3-2.2c-11.4-11.7-48.6-54.5-47-117.3c2.1-81.8,67.3-126.9,74.7-131.8
			c2.4-1.6,5.5-1.6,7.9-0.1c2.4,1.5,3.8,4.2,3.6,7.1c-2.4,26.4,1.1,50.9,10.4,72.7c7.3,17,16,27.7,23.7,37.1
			c8.7,10.6,16.2,19.8,17.9,33.7c3.7,30.4-23.1,63.1-81.8,100C534.8,534.7,533.5,535.1,532.1,535.1L532.1,535.1z M550.3,305.5
			c-19.5,16.5-54.2,53.8-55.7,110.4c-1.3,50.9,25.5,87.4,38.7,102.2c48.4-31.2,72.5-59.6,69.7-82.2c-1.2-9.6-6.8-16.5-14.6-26
			c-7.9-9.7-17.8-21.7-25.9-40.7C554.3,349.5,550.2,328.2,550.3,305.5L550.3,305.5z"/>
		<path class="st1" d="M469.3,798c-18.5,0-33.4,14.9-33.4,33.4c0,18.5,15,33.4,33.4,33.4V798L469.3,798z"/>
		<path class="st1" d="M469.3,866c-19.1,0-34.7-15.5-34.7-34.7c0-19.1,15.5-34.7,34.7-34.7c0.7,0,1.2,0.5,1.2,1.2v66.8
			C470.5,865.5,470,866,469.3,866L469.3,866z M468,799.2c-17.2,0.6-30.9,14.8-30.9,32.1c0,17.3,13.8,31.5,30.9,32.1V799.2L468,799.2
			z"/>
		<path class="st1" d="M438.2,152.1c18.5,0,33.4-14.9,33.4-33.4c0-18.5-15-33.4-33.4-33.4V152.1z"/>
		<path class="st1" d="M438.2,153.3c-0.7,0-1.2-0.5-1.2-1.2V85.2c0-0.7,0.5-1.2,1.2-1.2c19.1,0,34.7,15.5,34.7,34.7
			C472.9,137.8,457.3,153.3,438.2,153.3z M439.4,86.5v64.3c17.2-0.6,30.9-14.8,30.9-32.1C470.4,101.3,456.6,87.2,439.4,86.5
			L439.4,86.5z"/>
		<path class="st1" d="M99.4,501.4c-13,0-23.5-10.5-23.5-23.5c0-13,10.5-23.5,23.5-23.5s23.5,10.5,23.5,23.5
			C122.9,490.9,112.4,501.4,99.4,501.4L99.4,501.4z M99.4,459.8c-10,0-18.1,8.1-18.1,18.1S89.4,496,99.4,496
			c10,0,18.1-8.1,18.1-18.1S109.4,459.8,99.4,459.8L99.4,459.8z"/>
		<path class="st1" d="M99.4,502.6c-13.7,0-24.8-11.1-24.8-24.8c0-13.7,11.1-24.8,24.8-24.8c13.7,0,24.8,11.1,24.8,24.8
			C124.2,491.5,113,502.6,99.4,502.6L99.4,502.6z M99.4,455.6c-12.3,0-22.3,10-22.3,22.3s10,22.3,22.3,22.3
			c12.3,0,22.3-10,22.3-22.3S111.7,455.6,99.4,455.6L99.4,455.6z M99.4,497.2c-10.6,0-19.3-8.6-19.3-19.3s8.6-19.3,19.3-19.3
			c10.7,0,19.3,8.6,19.3,19.3S110.1,497.2,99.4,497.2L99.4,497.2z M99.4,461c-9.3,0-16.8,7.5-16.8,16.8c0,9.3,7.5,16.8,16.8,16.8
			c9.3,0,16.8-7.5,16.8-16.8C116.2,468.6,108.7,461,99.4,461L99.4,461z"/>
		<path class="st1" d="M814.3,495.8c11.5,0,20.8-9.3,20.8-20.8s-9.3-20.8-20.8-20.8c-11.5,0-20.8,9.3-20.8,20.8
			S802.9,495.8,814.3,495.8z"/>
		<path class="st1" d="M814.3,497c-12.2,0-22.1-9.9-22.1-22s9.9-22,22.1-22c12.2,0,22.1,9.9,22.1,22S826.5,497,814.3,497z
			 M814.3,455.5c-10.8,0-19.6,8.8-19.6,19.6s8.8,19.6,19.6,19.6c10.8,0,19.6-8.8,19.6-19.6S825.1,455.5,814.3,455.5z"/>
		<path class="st1" d="M76.5,369.1l-0.6,2.7l65.2,14.4l0.6-2.7L76.5,369.1z"/>
		<path class="st1" d="M141.2,388c0,0-0.2,0-0.4,0l-65.3-14.4c-1-0.2-1.6-1.2-1.4-2.2l0.6-2.7c0.1-0.5,0.4-0.9,0.8-1.2
			c0.4-0.2,0.9-0.3,1.4-0.2l65.3,14.4c1,0.2,1.6,1.2,1.4,2.2l-0.6,2.7c-0.1,0.5-0.4,0.9-0.8,1.2C141.8,387.9,141.5,388,141.2,388
			L141.2,388z"/>
		<path class="st1" d="M118.7,274.8l-1.3,2.4l59.4,30.7l1.3-2.4L118.7,274.8z"/>
		<path class="st1" d="M176.8,309.8c-0.3,0-0.6,0-0.8-0.2l-59.4-30.7c-0.9-0.4-1.3-1.6-0.8-2.5l1.2-2.4c0.2-0.4,0.6-0.8,1.1-0.9
			c0.5-0.1,1-0.1,1.4,0.1l59.4,30.7c0.9,0.4,1.3,1.6,0.8,2.5l-1.2,2.4c-0.2,0.4-0.6,0.8-1.1,0.9C177.2,309.8,177,309.8,176.8,309.8
			L176.8,309.8z"/>
		<path class="st1" d="M177,197.9l-1.8,2l49.4,45l1.8-2L177,197.9z"/>
		<path class="st1" d="M224.6,246.8c-0.4,0-0.9-0.1-1.2-0.5l-49.4-45c-0.3-0.3-0.6-0.8-0.6-1.3c0-0.5,0.1-1,0.5-1.3l1.8-2
			c0.7-0.7,1.9-0.8,2.6-0.1l49.4,45c0.3,0.3,0.6,0.8,0.6,1.3c0,0.5-0.1,1-0.5,1.3l-1.8,2C225.6,246.6,225.1,246.8,224.6,246.8
			L224.6,246.8z"/>
		<path class="st1" d="M257.4,137.7l-2.3,1.5l36.1,56.2l2.3-1.5L257.4,137.7z"/>
		<path class="st1" d="M291.2,197.3c0,0-0.2,0-0.4,0c-0.5-0.1-0.9-0.4-1.2-0.8l-36.1-56.2c-0.5-0.8-0.3-2,0.5-2.6l2.3-1.5
			c0.4-0.2,0.9-0.3,1.4-0.2c0.4,0.1,0.9,0.4,1.2,0.8L295,193c0.5,0.8,0.3,2-0.5,2.6l-2.3,1.5C291.9,197.2,291.6,197.3,291.2,197.3
			L291.2,197.3z"/>
		<path class="st1" d="M351.6,97.4l-2.6,0.8l20.4,63.6l2.6-0.8L351.6,97.4z"/>
		<path class="st1" d="M369.3,163.8c-0.8,0-1.5-0.5-1.8-1.3l-20.4-63.6c-0.1-0.4-0.1-1,0.1-1.4c0.2-0.4,0.6-0.8,1.1-0.9l2.6-0.8
			c1-0.3,2,0.2,2.3,1.2l20.4,63.6c0.1,0.4,0.1,1-0.1,1.4c-0.2,0.4-0.6,0.8-1.1,0.9l-2.6,0.8C369.9,163.7,369.5,163.8,369.3,163.8z"
			/>
		<path class="st1" d="M769.8,563.8l-0.6,2.7l65.2,14.4l0.6-2.7L769.8,563.8z"/>
		<path class="st1" d="M834.6,582.7c0,0-0.2,0-0.4,0l-65.3-14.4c-0.5-0.1-0.9-0.4-1.2-0.8c-0.3-0.4-0.3-0.9-0.2-1.4l0.6-2.7
			c0.2-1,1.2-1.6,2.2-1.4l65.3,14.4c0.5,0.1,0.9,0.4,1.2,0.8c0.3,0.4,0.3,0.9,0.2,1.4l-0.6,2.7C836.2,582.1,835.5,582.7,834.6,582.7
			L834.6,582.7z"/>
		<path class="st1" d="M734.2,642l-1.3,2.4l59.4,30.7l1.3-2.4L734.2,642z"/>
		<path class="st1" d="M792.3,677c-0.3,0-0.6,0-0.8-0.2l-59.4-30.7c-0.9-0.4-1.3-1.6-0.8-2.5l1.2-2.4c0.2-0.4,0.6-0.8,1.1-0.9
			c0.5-0.1,1-0.1,1.4,0.1l59.4,30.7c0.9,0.4,1.3,1.6,0.8,2.5L794,676c-0.2,0.4-0.6,0.8-1.1,0.9C792.7,676.9,792.5,677,792.3,677
			L792.3,677z"/>
		<path class="st1" d="M686.5,705l-1.8,2l49.4,45l1.8-2L686.5,705z"/>
		<path class="st1" d="M734,753.9c-0.4,0-0.9-0.1-1.2-0.5l-49.4-45c-0.3-0.3-0.6-0.8-0.6-1.3c0-0.5,0.1-1,0.5-1.3l1.8-2
			c0.7-0.7,1.9-0.8,2.6-0.1l49.4,45c0.3,0.3,0.6,0.8,0.6,1.3c0,0.5-0.1,1-0.5,1.3l-1.8,2C735.1,753.7,734.5,753.9,734,753.9z"/>
		<path class="st1" d="M619.8,754.4l-2.3,1.5l36.1,56.2l2.3-1.5L619.8,754.4z"/>
		<path class="st1" d="M653.6,814c0,0-0.2,0-0.4,0c-0.5-0.1-0.9-0.4-1.2-0.8L615.9,757c-0.5-0.8-0.3-2,0.5-2.6l2.3-1.5
			c0.4-0.2,0.9-0.3,1.4-0.2c0.5,0.1,0.9,0.4,1.2,0.8l36.1,56.2c0.5,0.8,0.3,2-0.5,2.6l-2.3,1.5C654.3,814,654,814.1,653.6,814
			L653.6,814z"/>
		<path class="st1" d="M541.6,788l-2.6,0.8l20.4,63.6l2.6-0.8L541.6,788z"/>
		<path class="st1" d="M559.4,854.3c-0.8,0-1.5-0.5-1.8-1.3l-20.4-63.6c-0.1-0.4-0.1-1,0.1-1.4c0.2-0.4,0.6-0.8,1.1-0.9l2.6-0.8
			c1-0.3,2,0.2,2.3,1.2l20.4,63.6c0.1,0.4,0.1,1-0.1,1.4c-0.2,0.4-0.6,0.8-1.1,0.9l-2.6,0.8C560,854.2,559.6,854.3,559.4,854.3
			L559.4,854.3z"/>
		<path class="st1" d="M834.5,369.2l-65.2,14.4l0.6,2.7l65.2-14.4L834.5,369.2z"/>
		<path class="st1" d="M769.8,388c-0.3,0-0.7-0.1-1-0.3c-0.4-0.2-0.7-0.7-0.8-1.2l-0.6-2.7c-0.2-1,0.4-2,1.4-2.2l65.3-14.4
			c1-0.2,2,0.4,2.2,1.4l0.6,2.7c0.1,0.5,0,1-0.2,1.4c-0.2,0.4-0.7,0.7-1.2,0.8l-65.3,14.4C770.3,387.9,770,387.9,769.8,388
			L769.8,388z"/>
		<path class="st1" d="M792.3,274.7l-59.4,30.7l1.3,2.4l59.4-30.7L792.3,274.7z"/>
		<path class="st1" d="M734.2,309.8c0,0-0.4,0-0.5-0.1c-0.4-0.1-0.8-0.5-1.1-0.9l-1.2-2.4c-0.5-0.9-0.1-2,0.8-2.5l59.4-30.7
			c0.4-0.2,0.9-0.2,1.4-0.1c0.4,0.1,0.8,0.5,1.1,0.9l1.2,2.4c0.5,0.9,0.1,2-0.8,2.5l-59.4,30.7C734.8,309.8,734.5,309.8,734.2,309.8
			L734.2,309.8z"/>
		<path class="st1" d="M734,197.9l-49.4,45l1.8,2l49.4-45L734,197.9z"/>
		<path class="st1" d="M686.4,246.8c-0.5,0-1-0.2-1.4-0.6l-1.8-2c-0.3-0.3-0.5-0.8-0.5-1.3c0-0.5,0.2-0.9,0.6-1.3l49.4-45
			c0.7-0.7,1.9-0.6,2.6,0.1l1.8,2c0.3,0.3,0.5,0.8,0.5,1.3c0,0.5-0.2,0.9-0.6,1.3l-49.4,45C687.3,246.6,686.9,246.8,686.4,246.8
			L686.4,246.8z"/>
		<path class="st1" d="M653.7,137.8L617.5,194l2.3,1.5l36.1-56.2L653.7,137.8z"/>
		<path class="st1" d="M619.7,197.3c-0.3,0-0.7-0.1-1-0.3l-2.3-1.5c-0.8-0.5-1.1-1.7-0.5-2.6l36.1-56.2c0.2-0.4,0.7-0.7,1.2-0.8
			s1,0,1.4,0.2l2.3,1.5c0.8,0.5,1.1,1.7,0.5,2.6l-36.1,56.2c-0.2,0.4-0.7,0.7-1.2,0.8C620,197.2,619.9,197.2,619.7,197.3
			L619.7,197.3z"/>
		<path class="st1" d="M559.4,97.5L539,161.1l2.6,0.8L562,98.3L559.4,97.5z"/>
		<path class="st1" d="M541.7,163.8c0,0-0.4,0-0.5-0.1l-2.6-0.8c-0.4-0.1-0.8-0.5-1.1-0.9c-0.2-0.4-0.2-0.9-0.1-1.4l20.4-63.6
			c0.3-1,1.3-1.5,2.3-1.2l2.6,0.8c0.4,0.1,0.8,0.5,1.1,0.9c0.2,0.4,0.2,0.9,0.1,1.4l-20.4,63.6C543.2,163.3,542.4,163.8,541.7,163.8
			L541.7,163.8z"/>
		<path class="st1" d="M142.4,566.5l-65.2,14.4l0.6,2.7l65.2-14.4L142.4,566.5z"/>
		<path class="st1" d="M77.8,585.4c-0.8,0-1.6-0.6-1.8-1.4l-0.6-2.7c-0.1-0.5,0-1,0.2-1.4c0.2-0.4,0.7-0.7,1.2-0.8l65.3-14.4
			c1-0.2,2,0.4,2.2,1.4l0.6,2.7c0.1,0.5,0,1-0.2,1.4c-0.2,0.4-0.7,0.7-1.2,0.8l-65.3,14.4C78.2,585.4,77.9,585.4,77.8,585.4
			L77.8,585.4z"/>
		<path class="st1" d="M178.2,644.7l-59.4,30.7l1.3,2.4l59.4-30.7L178.2,644.7z"/>
		<path class="st1" d="M120,679.7c0,0-0.4,0-0.5-0.1c-0.4-0.1-0.8-0.5-1.1-0.9l-1.2-2.4c-0.5-0.9-0.1-2,0.8-2.5l59.4-30.7
			c0.4-0.2,0.9-0.2,1.4-0.1c0.4,0.1,0.8,0.5,1.1,0.9l1.2,2.4c0.5,0.9,0.1,2-0.8,2.5l-59.4,30.7C120.7,679.7,120.4,679.7,120,679.7
			L120,679.7z"/>
		<path class="st1" d="M225.9,707.8l-49.4,45l1.8,2l49.4-45L225.9,707.8z"/>
		<path class="st1" d="M178.3,756.6c-0.5,0-1-0.2-1.4-0.6l-1.8-2c-0.3-0.3-0.5-0.8-0.5-1.3c0-0.5,0.2-0.9,0.6-1.3l49.4-45
			c0.7-0.7,1.9-0.6,2.6,0.1l1.8,2c0.3,0.3,0.5,0.8,0.5,1.3c0,0.5-0.2,0.9-0.6,1.3l-49.4,45C179.2,756.4,178.8,756.6,178.3,756.6
			L178.3,756.6z"/>
		<path class="st1" d="M292.6,757.3l-36.1,56.2l2.3,1.5l36.1-56.2L292.6,757.3z"/>
		<path class="st1" d="M258.7,816.7c-0.3,0-0.7-0.1-1-0.3l-2.3-1.5c-0.8-0.5-1.1-1.7-0.5-2.6l36.1-56.2c0.2-0.4,0.7-0.7,1.2-0.8
			c0.5-0.1,1,0,1.4,0.2l2.3,1.5c0.8,0.5,1.1,1.7,0.5,2.6l-36.1,56.2c-0.2,0.4-0.7,0.7-1.2,0.8C259,816.7,258.9,816.7,258.7,816.7
			L258.7,816.7z"/>
		<path class="st1" d="M370.7,790.7l-20.4,63.6l2.6,0.8l20.4-63.6L370.7,790.7z"/>
		<path class="st1" d="M352.9,857.1c0,0-0.4,0-0.5-0.1l-2.6-0.8c-0.4-0.1-0.8-0.5-1.1-0.9c-0.2-0.4-0.2-0.9-0.1-1.4l20.4-63.6
			c0.3-1,1.3-1.5,2.3-1.2l2.6,0.8c0.4,0.1,0.8,0.5,1.1,0.9c0.2,0.4,0.2,0.9,0.1,1.4l-20.4,63.6C354.4,856.6,353.7,857.1,352.9,857.1
			L352.9,857.1z"/>
	</g>
</g>
</svg>
