<?xml version="1.0" encoding="utf-8"?>
<!-- Generator: Adobe Illustrator 26.5.0, SVG Export Plug-In . SVG Version: 6.00 Build 0)  -->
<svg version="1.1" id="Ebene_1" xmlns="http://www.w3.org/2000/svg" xmlns:xlink="http://www.w3.org/1999/xlink" x="0px" y="0px"
	 viewBox="0 0 1080 608.3" style="enable-background:new 0 0 1080 608.3;" xml:space="preserve">
<style type="text/css">
	.st0{fill:#FFFFFF;}
</style>
<g>
	<path class="st0" d="M1014.7,40c5.2,3.3,9.7,6.2,16.1,10.3c-30.6,42.2-60,83.8-90.5,124.6c-86,114.6-173.2,228.3-274.8,329.9
		c-24.3,24.3-52.1,45.3-79.5,66.4c-25.6,19.6-54.2,19.6-78.9,0c-41-32.5-82.5-65.2-119.1-102.3C261.9,340.9,151.2,200.1,42.6,57.6
		c-1.5-1.9-2.5-4.2-4.2-7.2c4.1-3.5,8.2-7,13.6-11.6c4,4.7,7.6,8.6,10.8,12.8c100.5,131.6,203,261.6,317.9,381.2
		c39.6,41.3,83.2,79.1,127.6,115.3c30.8,25.1,48,25.5,77.7-1.3c51.8-46.5,104.5-93.4,148.4-146.9
		c93.9-114.5,182.4-233.3,273.1-350.4C1009.7,46.6,1011.8,43.7,1014.7,40z"/>
</g>
</svg>
