<svg width="299" height="295" viewBox="0 0 299 295" fill="none" xmlns="http://www.w3.org/2000/svg">
<path d="M146.655 11.43L144.285 12.03C143.705 9.63 142.395 8.43 140.355 8.43C138.855 8.43 137.695 9.05 136.875 10.29C136.075 11.53 135.625 13.3 135.525 15.6C136.045 14.96 136.745 14.44 137.625 14.04C138.505 13.62 139.505 13.41 140.625 13.41C142.585 13.41 144.155 14.04 145.335 15.3C146.535 16.54 147.135 18.11 147.135 20.01C147.135 22.05 146.525 23.79 145.305 25.23C144.085 26.65 142.395 27.36 140.235 27.36C137.855 27.36 136.025 26.51 134.745 24.81C133.465 23.09 132.825 20.47 132.825 16.95C132.825 13.57 133.485 10.94 134.805 9.06C136.125 7.18 138.005 6.24 140.445 6.24C141.465 6.24 142.375 6.41 143.175 6.75C143.975 7.07 144.605 7.5 145.065 8.04C145.525 8.58 145.885 9.14 146.145 9.72C146.405 10.28 146.575 10.85 146.655 11.43ZM144.525 20.16C144.525 18.74 144.125 17.64 143.325 16.86C142.525 16.06 141.495 15.66 140.235 15.66C139.315 15.66 138.415 15.9 137.535 16.38C136.675 16.86 136.005 17.5 135.525 18.3C135.565 20.38 135.995 22.04 136.815 23.28C137.655 24.52 138.795 25.14 140.235 25.14C141.515 25.14 142.545 24.69 143.325 23.79C144.125 22.87 144.525 21.66 144.525 20.16ZM162.88 10.74C162.04 9.2 160.78 8.43 159.1 8.43C157.42 8.43 156.16 9.2 155.32 10.74C154.48 12.26 154.06 14.27 154.06 16.77C154.06 22.35 155.74 25.14 159.1 25.14C162.46 25.14 164.14 22.35 164.14 16.77C164.14 14.27 163.72 12.26 162.88 10.74ZM159.1 27.36C157.7 27.36 156.48 27.07 155.44 26.49C154.4 25.91 153.59 25.11 153.01 24.09C152.43 23.07 152 21.96 151.72 20.76C151.46 19.56 151.33 18.25 151.33 16.83C151.33 13.75 151.98 11.22 153.28 9.24C154.6 7.24 156.54 6.24 159.1 6.24C161.66 6.24 163.59 7.23 164.89 9.21C166.21 11.19 166.87 13.73 166.87 16.83C166.87 17.95 166.79 19.01 166.63 20.01C166.47 20.99 166.19 21.94 165.79 22.86C165.41 23.76 164.93 24.54 164.35 25.2C163.77 25.86 163.03 26.39 162.13 26.79C161.23 27.17 160.22 27.36 159.1 27.36Z" fill="white"/>
<path d="M273.965 134.6V155H271.415V140.96H266.045V138.95H266.705C268.225 138.95 269.385 138.66 270.185 138.08C271.165 137.36 271.685 136.2 271.745 134.6H273.965ZM282.99 150.38L285.51 149.45C285.79 150.63 286.32 151.54 287.1 152.18C287.9 152.82 288.86 153.14 289.98 153.14C291.26 153.14 292.34 152.7 293.22 151.82C294.1 150.92 294.54 149.63 294.54 147.95C294.54 146.47 294.11 145.33 293.25 144.53C292.41 143.71 291.39 143.3 290.19 143.3C289.09 143.3 288.15 143.6 287.37 144.2C286.61 144.8 286.07 145.67 285.75 146.81L283.53 146.09L284.58 134.6H296.1L295.95 136.94H286.83L286.23 142.61C287.43 141.57 288.87 141.05 290.55 141.05C292.53 141.05 294.13 141.67 295.35 142.91C296.59 144.15 297.21 145.85 297.21 148.01C297.21 150.17 296.55 151.94 295.23 153.32C293.93 154.68 292.16 155.36 289.92 155.36C288.14 155.36 286.64 154.93 285.42 154.07C284.22 153.19 283.41 151.96 282.99 150.38Z" fill="white"/>
<path d="M135.435 271.3L133.155 270.58C133.235 269.34 133.845 268.14 134.985 266.98C136.125 265.82 137.735 265.24 139.815 265.24C141.895 265.24 143.485 265.73 144.585 266.71C145.705 267.69 146.265 268.97 146.265 270.55C146.265 271.69 145.985 272.65 145.425 273.43C144.885 274.19 144.165 274.76 143.265 275.14C144.285 275.52 145.135 276.14 145.815 277C146.495 277.84 146.835 278.91 146.835 280.21C146.835 282.03 146.185 283.51 144.885 284.65C143.585 285.79 141.815 286.36 139.575 286.36C137.495 286.36 135.845 285.82 134.625 284.74C133.425 283.64 132.775 282.15 132.675 280.27L135.105 279.49C135.185 281.05 135.635 282.22 136.455 283C137.295 283.76 138.345 284.14 139.605 284.14C141.005 284.14 142.105 283.78 142.905 283.06C143.725 282.34 144.135 281.36 144.135 280.12C144.135 278.48 143.415 277.38 141.975 276.82C141.155 276.5 140.055 276.34 138.675 276.34H136.815V274.24H138.495C139.915 274.24 141.045 274.05 141.885 273.67C143.025 273.17 143.595 272.2 143.595 270.76C143.595 269.74 143.255 268.93 142.575 268.33C141.895 267.73 140.935 267.43 139.695 267.43C138.415 267.43 137.415 267.8 136.695 268.54C135.995 269.26 135.575 270.18 135.435 271.3ZM162.88 269.74C162.04 268.2 160.78 267.43 159.1 267.43C157.42 267.43 156.16 268.2 155.32 269.74C154.48 271.26 154.06 273.27 154.06 275.77C154.06 281.35 155.74 284.14 159.1 284.14C162.46 284.14 164.14 281.35 164.14 275.77C164.14 273.27 163.72 271.26 162.88 269.74ZM159.1 286.36C157.7 286.36 156.48 286.07 155.44 285.49C154.4 284.91 153.59 284.11 153.01 283.09C152.43 282.07 152 280.96 151.72 279.76C151.46 278.56 151.33 277.25 151.33 275.83C151.33 272.75 151.98 270.22 153.28 268.24C154.6 266.24 156.54 265.24 159.1 265.24C161.66 265.24 163.59 266.23 164.89 268.21C166.21 270.19 166.87 272.73 166.87 275.83C166.87 276.95 166.79 278.01 166.63 279.01C166.47 279.99 166.19 280.94 165.79 281.86C165.41 282.76 164.93 283.54 164.35 284.2C163.77 284.86 163.03 285.39 162.13 285.79C161.23 286.17 160.22 286.36 159.1 286.36Z" fill="white"/>
<path d="M13.0147 149.96V155H10.4647V149.96H1.19469V148.04L10.6747 134.6H13.0147V147.68H16.4347V149.96H13.0147ZM4.04469 147.68H10.4647V141.17C10.4647 140.27 10.5047 139.28 10.5847 138.2C9.74469 139.62 9.11469 140.62 8.69469 141.2L4.04469 147.68ZM20.99 150.38L23.51 149.45C23.79 150.63 24.32 151.54 25.1 152.18C25.9 152.82 26.86 153.14 27.98 153.14C29.26 153.14 30.34 152.7 31.22 151.82C32.1 150.92 32.54 149.63 32.54 147.95C32.54 146.47 32.11 145.33 31.25 144.53C30.41 143.71 29.39 143.3 28.19 143.3C27.09 143.3 26.15 143.6 25.37 144.2C24.61 144.8 24.07 145.67 23.75 146.81L21.53 146.09L22.58 134.6H34.1L33.95 136.94H24.83L24.23 142.61C25.43 141.57 26.87 141.05 28.55 141.05C30.53 141.05 32.13 141.67 33.35 142.91C34.59 144.15 35.21 145.85 35.21 148.01C35.21 150.17 34.55 151.94 33.23 153.32C31.93 154.68 30.16 155.36 27.92 155.36C26.14 155.36 24.64 154.93 23.42 154.07C22.22 153.19 21.41 151.96 20.99 150.38Z" fill="white"/>
<path d="M13.9068 107.067L13.6953 108.022L37.1984 113.162L37.4099 112.207L13.9068 107.067Z" fill="white"/>
<path d="M37.2036 113.84C37.2036 113.84 37.1141 113.84 37.0604 113.84L13.5318 108.684C13.174 108.613 12.9414 108.257 13.0129 107.884L13.2276 106.923C13.2634 106.746 13.3708 106.603 13.5139 106.497C13.6571 106.408 13.8539 106.372 14.0149 106.408L37.5257 111.546C37.8835 111.618 38.1161 111.973 38.0445 112.347L37.8298 113.307C37.794 113.485 37.6867 113.627 37.5435 113.734C37.4362 113.805 37.3109 113.84 37.1857 113.84H37.2036Z" fill="white"/>
<path d="M29.1243 73.3122L28.6719 74.1807L50.0592 85.1837L50.5116 84.3152L29.1243 73.3122Z" fill="white"/>
<path d="M50.0499 85.8509C49.9426 85.8509 49.8352 85.8332 49.7458 85.7798L28.3642 74.7911C28.0422 74.631 27.899 74.2221 28.0779 73.902L28.5253 73.0307C28.6147 72.8707 28.74 72.7462 28.9189 72.6929C29.0978 72.6395 29.2767 72.6573 29.4378 72.7284L50.8193 83.7172C51.1414 83.8772 51.2845 84.2862 51.1056 84.6063L50.6583 85.4775C50.5688 85.6376 50.4436 85.762 50.2646 85.8154C50.1931 85.8332 50.1215 85.8509 50.0678 85.8509H50.0499Z" fill="white"/>
<path d="M50.1001 45.7879L49.4375 46.511L67.2314 62.6127L67.8939 61.8896L50.1001 45.7879Z" fill="white"/>
<path d="M67.2463 63.2866C67.0853 63.2866 66.9242 63.2333 66.799 63.1088L48.996 46.9991C48.8707 46.8746 48.7812 46.7146 48.7812 46.5368C48.7812 46.3589 48.8349 46.1811 48.9602 46.0567L49.6222 45.3276C49.8727 45.0609 50.3021 45.0431 50.5705 45.2921L68.3735 61.4018C68.4988 61.5263 68.5882 61.6863 68.5882 61.8641C68.5882 62.0419 68.5346 62.2197 68.4093 62.3442L67.7473 63.0732C67.622 63.2155 67.4252 63.2866 67.2463 63.2866V63.2866Z" fill="white"/>
<path d="M79.0622 24.2349L78.2344 24.7637L91.2558 44.8972L92.0836 44.3684L79.0622 24.2349Z" fill="white"/>
<path d="M91.2553 45.5608C91.2553 45.5608 91.1659 45.5608 91.1122 45.5608C90.9333 45.5252 90.7901 45.4185 90.6828 45.2763L77.6749 25.148C77.4781 24.8457 77.5676 24.419 77.8717 24.2234L78.6948 23.6899C78.8379 23.601 79.0347 23.5655 79.1958 23.601C79.3568 23.6366 79.5178 23.7433 79.6252 23.8855L92.633 44.0138C92.8299 44.3161 92.7404 44.7428 92.4362 44.9384L91.6132 45.4719C91.5058 45.543 91.3806 45.5785 91.2553 45.5785V45.5608Z" fill="white"/>
<path d="M113 9.81249L112.062 10.111L119.407 32.8856L120.344 32.5871L113 9.81249Z" fill="white"/>
<path d="M119.404 33.5748C119.118 33.5748 118.849 33.397 118.76 33.1125L111.406 10.3349C111.353 10.1748 111.37 9.97924 111.442 9.81921C111.531 9.65918 111.657 9.53471 111.836 9.48137L112.766 9.17909C113.124 9.0724 113.5 9.268 113.607 9.60584L120.961 32.3835C121.014 32.5435 120.997 32.7391 120.925 32.8992C120.836 33.0592 120.71 33.1837 120.531 33.237L119.601 33.5393C119.601 33.5393 119.458 33.5748 119.404 33.5748Z" fill="white"/>
<path d="M263.665 176.778L263.453 177.733L286.956 182.873L287.168 181.918L263.665 176.778Z" fill="white"/>
<path d="M286.986 183.558C286.986 183.558 286.897 183.558 286.843 183.558L263.332 178.419C263.154 178.384 263.01 178.277 262.903 178.135C262.796 177.993 262.778 177.797 262.814 177.637L263.028 176.677C263.1 176.321 263.476 176.09 263.833 176.161L287.344 181.3C287.523 181.336 287.666 181.442 287.774 181.585C287.881 181.727 287.899 181.922 287.863 182.082L287.648 183.043C287.577 183.345 287.308 183.558 286.986 183.558V183.558Z" fill="white"/>
<path d="M250.843 204.809L250.391 205.677L271.778 216.68L272.23 215.812L250.843 204.809Z" fill="white"/>
<path d="M271.761 217.324C271.654 217.324 271.546 217.306 271.457 217.253L250.075 206.264C249.753 206.104 249.61 205.695 249.789 205.375L250.236 204.504C250.326 204.344 250.451 204.219 250.63 204.166C250.809 204.113 250.988 204.13 251.149 204.202L272.53 215.19C272.852 215.35 272.995 215.759 272.817 216.079L272.369 216.951C272.28 217.111 272.154 217.235 271.976 217.289C271.904 217.306 271.832 217.324 271.779 217.324H271.761Z" fill="white"/>
<path d="M233.639 227.346L232.977 228.069L250.77 244.171L251.433 243.448L233.639 227.346Z" fill="white"/>
<path d="M250.77 244.849C250.609 244.849 250.448 244.795 250.322 244.671L232.519 228.561C232.394 228.437 232.305 228.277 232.305 228.099C232.305 227.921 232.358 227.743 232.484 227.619L233.146 226.89C233.396 226.623 233.826 226.605 234.094 226.854L251.897 242.964C252.022 243.088 252.112 243.248 252.112 243.426C252.112 243.604 252.058 243.782 251.933 243.906L251.271 244.635C251.145 244.778 250.949 244.849 250.77 244.849Z" fill="white"/>
<path d="M209.617 245.027L208.789 245.556L221.81 265.689L222.638 265.16L209.617 245.027Z" fill="white"/>
<path d="M221.802 266.382C221.802 266.382 221.713 266.382 221.659 266.382C221.48 266.346 221.337 266.239 221.23 266.097L208.222 245.969C208.025 245.667 208.114 245.24 208.419 245.044L209.242 244.511C209.385 244.422 209.564 244.386 209.743 244.422C209.922 244.457 210.065 244.564 210.172 244.706L223.18 264.835C223.377 265.137 223.287 265.564 222.983 265.759L222.16 266.293C222.053 266.364 221.927 266.399 221.802 266.399V266.382Z" fill="white"/>
<path d="M181.461 257.07L180.523 257.368L187.868 280.143L188.805 279.845L181.461 257.07Z" fill="white"/>
<path d="M187.881 280.821C187.594 280.821 187.326 280.644 187.237 280.359L179.883 257.581C179.829 257.421 179.847 257.226 179.919 257.066C180.008 256.906 180.133 256.781 180.312 256.728L181.243 256.426C181.6 256.319 181.976 256.515 182.084 256.852L189.437 279.63C189.491 279.79 189.473 279.986 189.402 280.146C189.312 280.306 189.187 280.43 189.008 280.484L188.078 280.786C188.078 280.786 187.934 280.821 187.881 280.821V280.821Z" fill="white"/>
<path d="M286.972 107.106L263.469 112.246L263.68 113.201L287.183 108.061L286.972 107.106Z" fill="white"/>
<path d="M263.669 113.839C263.544 113.839 263.419 113.804 263.312 113.733C263.168 113.644 263.061 113.484 263.025 113.306L262.811 112.346C262.739 111.99 262.954 111.634 263.329 111.545L286.84 106.407C287.198 106.318 287.556 106.549 287.645 106.922L287.86 107.883C287.896 108.06 287.86 108.238 287.771 108.38C287.681 108.523 287.52 108.629 287.341 108.665L263.83 113.804C263.83 113.804 263.741 113.804 263.687 113.804L263.669 113.839Z" fill="white"/>
<path d="M271.762 73.2982L250.375 84.3013L250.827 85.1698L272.215 74.1667L271.762 73.2982Z" fill="white"/>
<path d="M250.819 85.8517C250.819 85.8517 250.676 85.8517 250.622 85.8161C250.461 85.7628 250.318 85.6383 250.228 85.4783L249.781 84.607C249.602 84.287 249.745 83.878 250.067 83.718L271.449 72.7292C271.61 72.6403 271.789 72.6403 271.968 72.6936C272.129 72.747 272.272 72.8714 272.361 73.0315L272.809 73.9028C272.988 74.2228 272.844 74.6318 272.522 74.7918L251.141 85.7806C251.051 85.8339 250.944 85.8517 250.837 85.8517H250.819Z" fill="white"/>
<path d="M250.747 45.7884L232.953 61.8901L233.616 62.6132L251.41 46.5115L250.747 45.7884Z" fill="white"/>
<path d="M233.623 63.2869C233.444 63.2869 233.265 63.2157 233.122 63.0735L232.46 62.3445C232.335 62.22 232.281 62.0422 232.281 61.8644C232.281 61.6865 232.371 61.5265 232.496 61.402L250.299 45.2923C250.567 45.0434 250.997 45.0612 251.247 45.3279L251.909 46.0569C252.035 46.1814 252.088 46.3592 252.088 46.537C252.088 46.7148 251.999 46.8748 251.874 46.9993L234.07 63.109C233.945 63.2335 233.784 63.2869 233.623 63.2869V63.2869Z" fill="white"/>
<path d="M221.818 24.2584L208.797 44.3918L209.625 44.9206L222.646 24.7871L221.818 24.2584Z" fill="white"/>
<path d="M209.6 45.5605C209.474 45.5605 209.349 45.5249 209.242 45.4538L208.419 44.9204C208.114 44.7248 208.025 44.3158 208.222 43.9957L221.23 23.8675C221.319 23.7252 221.48 23.6185 221.659 23.583C221.838 23.5474 222.017 23.583 222.16 23.6719L222.983 24.2053C223.287 24.4009 223.377 24.8099 223.18 25.1299L210.172 45.2582C210.083 45.4005 209.922 45.5071 209.743 45.5427C209.689 45.5427 209.653 45.5427 209.6 45.5427V45.5605Z" fill="white"/>
<path d="M187.868 9.82485L180.523 32.5995L181.461 32.898L188.805 10.1233L187.868 9.82485Z" fill="white"/>
<path d="M181.468 33.5749C181.468 33.5749 181.325 33.5749 181.271 33.5394L180.341 33.2371C180.18 33.1838 180.037 33.0593 179.947 32.8993C179.858 32.7392 179.858 32.5614 179.912 32.3836L187.265 9.60593C187.373 9.25031 187.749 9.0725 188.106 9.17919L189.037 9.48147C189.198 9.53481 189.341 9.65928 189.43 9.81931C189.52 9.97934 189.52 10.1572 189.466 10.335L182.112 33.1126C182.023 33.3971 181.755 33.5749 181.468 33.5749V33.5749Z" fill="white"/>
<path d="M37.6594 177.779L14.1562 182.918L14.3677 183.873L37.8709 178.734L37.6594 177.779Z" fill="white"/>
<path d="M14.3748 184.539C14.0706 184.539 13.7844 184.326 13.7128 184.023L13.4981 183.063C13.4623 182.885 13.4981 182.708 13.5876 182.565C13.677 182.423 13.838 182.316 14.017 182.281L37.5277 177.142C37.8856 177.071 38.2434 177.284 38.3329 177.658L38.5476 178.618C38.5834 178.796 38.5476 178.973 38.4581 179.116C38.3687 179.258 38.2076 179.365 38.0287 179.4L14.518 184.539C14.518 184.539 14.4285 184.539 14.3748 184.539V184.539Z" fill="white"/>
<path d="M50.5514 205.756L29.1641 216.76L29.6165 217.628L51.0038 206.625L50.5514 205.756Z" fill="white"/>
<path d="M29.6001 218.305C29.6001 218.305 29.4569 218.305 29.4033 218.269C29.2422 218.216 29.0991 218.091 29.0096 217.931L28.5623 217.06C28.3834 216.74 28.5265 216.331 28.8486 216.171L50.2301 205.182C50.3912 205.093 50.5701 205.093 50.749 205.147C50.91 205.2 51.0532 205.324 51.1426 205.484L51.59 206.356C51.7689 206.676 51.6257 207.085 51.3037 207.245L29.9221 218.233C29.8327 218.287 29.7253 218.305 29.618 218.305H29.6001Z" fill="white"/>
<path d="M67.7236 228.348L49.9297 244.45L50.5922 245.173L68.3861 229.071L67.7236 228.348Z" fill="white"/>
<path d="M50.5919 245.83C50.413 245.83 50.2341 245.759 50.0909 245.617L49.4289 244.888C49.3037 244.763 49.25 244.586 49.25 244.408C49.25 244.23 49.3395 244.07 49.4647 243.946L67.2677 227.836C67.5361 227.587 67.9656 227.605 68.216 227.871L68.8781 228.6C69.0033 228.725 69.057 228.903 69.057 229.08C69.057 229.258 68.9675 229.418 68.8423 229.543L51.0392 245.652C50.914 245.777 50.753 245.83 50.5919 245.83V245.83Z" fill="white"/>
<path d="M91.7558 246.068L78.7344 266.201L79.5622 266.73L92.5836 246.597L91.7558 246.068Z" fill="white"/>
<path d="M79.5604 267.361C79.4352 267.361 79.31 267.325 79.2026 267.254L78.3795 266.721C78.0754 266.525 77.9859 266.116 78.1827 265.796L91.1906 245.668C91.28 245.526 91.4411 245.419 91.62 245.383C91.7989 245.348 91.9778 245.384 92.121 245.472L92.944 246.006C93.2482 246.201 93.3377 246.61 93.1408 246.93L80.133 267.059C80.0435 267.201 79.8825 267.308 79.7036 267.343C79.6499 267.343 79.6141 267.343 79.5604 267.343V267.361Z" fill="white"/>
<path d="M119.884 258.037L112.539 280.812L113.476 281.11L120.821 258.336L119.884 258.037Z" fill="white"/>
<path d="M113.484 281.8C113.484 281.8 113.341 281.8 113.287 281.764L112.357 281.462C112.196 281.409 112.053 281.284 111.963 281.124C111.874 280.964 111.874 280.786 111.927 280.608L119.281 257.831C119.388 257.475 119.764 257.297 120.122 257.404L121.052 257.706C121.213 257.76 121.357 257.884 121.446 258.044C121.536 258.204 121.536 258.382 121.482 258.56L114.128 281.338C114.039 281.622 113.77 281.8 113.484 281.8V281.8Z" fill="white"/>
</svg>
