<?xml version="1.0" encoding="utf-8"?>
<!-- Generator: Adobe Illustrator 26.5.0, SVG Export Plug-In . SVG Version: 6.00 Build 0)  -->
<svg version="1.1" id="Ebene_1" xmlns="http://www.w3.org/2000/svg" xmlns:xlink="http://www.w3.org/1999/xlink" x="0px" y="0px"
	 viewBox="0 0 299 295" style="enable-background:new 0 0 299 295;" xml:space="preserve">
<style type="text/css">
	.st0{fill:#FFFFFF;}
</style>
<path class="st0" d="M148,21.2c-0.3-0.1-0.5-0.3-0.5-0.6l0-9.6c0-0.2,0.1-0.3,0.2-0.5c0.1-0.1,0.3-0.2,0.5-0.2l1,0
	c0.4,0,0.7,0.3,0.7,0.7l0,9.6c0,0.2-0.1,0.3-0.2,0.5c-0.1,0.1-0.3,0.2-0.5,0.2l-1,0C148.2,21.3,148.1,21.3,148,21.2z"/>
<path class="st0" d="M204.1,50.3c-0.2-0.2-0.2-0.5-0.1-0.8l12-20.7c0.1-0.1,0.2-0.3,0.4-0.3c0.2,0,0.4,0,0.5,0.1l0.8,0.5
	c0.3,0.2,0.4,0.6,0.2,0.9l-12,20.7c-0.1,0.1-0.2,0.3-0.4,0.3c-0.2,0-0.4,0-0.5-0.1l-0.8-0.5C204.3,50.4,204.1,50.4,204.1,50.3z"/>
<path class="st0" d="M245.3,91.1c-0.1-0.3,0.1-0.6,0.3-0.7l20.7-12c0.1-0.1,0.3-0.1,0.5-0.1c0.2,0.1,0.3,0.2,0.4,0.3l0.5,0.8
	c0.2,0.3,0.1,0.7-0.2,0.9l-20.7,12c-0.1,0.1-0.3,0.1-0.5,0.1c-0.2-0.1-0.3-0.2-0.4-0.3l-0.5-0.8C245.4,91.3,245.3,91.2,245.3,91.1z"
	/>
<path class="st0" d="M274.9,147c0.1-0.3,0.3-0.5,0.6-0.5l9.6,0c0.2,0,0.3,0.1,0.5,0.2c0.1,0.1,0.2,0.3,0.2,0.5l0,1
	c0,0.4-0.3,0.7-0.7,0.7l-9.6,0c-0.2,0-0.3-0.1-0.5-0.2c-0.1-0.1-0.2-0.3-0.2-0.5l0-1C274.9,147.2,274.9,147.1,274.9,147z"/>
<path class="st0" d="M245.8,203.1c0.2-0.2,0.5-0.2,0.8-0.1l20.7,12c0.1,0.1,0.3,0.2,0.3,0.4c0,0.2,0,0.4-0.1,0.5l-0.5,0.8
	c-0.2,0.3-0.6,0.4-0.9,0.2l-20.7-12c-0.1-0.1-0.3-0.2-0.3-0.4c0-0.2,0-0.4,0.1-0.5l0.5-0.8C245.7,203.2,245.8,203.1,245.8,203.1z"/>
<path class="st0" d="M205.1,244.3c0.3-0.1,0.6,0.1,0.7,0.3l12,20.7c0.1,0.1,0.1,0.3,0.1,0.5c-0.1,0.2-0.2,0.3-0.3,0.4l-0.8,0.5
	c-0.3,0.2-0.7,0.1-0.9-0.2l-12-20.7c-0.1-0.1-0.1-0.3-0.1-0.5c0.1-0.2,0.2-0.3,0.3-0.4l0.8-0.5C204.9,244.4,205,244.3,205.1,244.3z"
	/>
<path class="st0" d="M149.1,273.9c0.3,0.1,0.5,0.3,0.5,0.6l0,9.6c0,0.2-0.1,0.3-0.2,0.5c-0.1,0.1-0.3,0.2-0.5,0.2l-1,0
	c-0.4,0-0.7-0.3-0.7-0.7l0-9.6c0-0.2,0.1-0.3,0.2-0.5c0.1-0.1,0.3-0.2,0.5-0.2l1,0C148.9,273.9,149.1,273.9,149.1,273.9z"/>
<path class="st0" d="M93.1,244.8c0.2,0.2,0.2,0.5,0.1,0.8l-12,20.7c-0.1,0.1-0.2,0.3-0.4,0.3c-0.2,0-0.4,0-0.5-0.1l-0.8-0.5
	c-0.3-0.2-0.4-0.6-0.2-0.9l12-20.7c0.1-0.1,0.2-0.3,0.4-0.3c0.2,0,0.4,0,0.5,0.1l0.8,0.5C92.9,244.7,93,244.8,93.1,244.8z"/>
<path class="st0" d="M51.9,204c0.1,0.3-0.1,0.6-0.3,0.7l-20.7,12c-0.1,0.1-0.3,0.1-0.5,0.1c-0.2-0.1-0.3-0.2-0.4-0.3l-0.5-0.8
	c-0.2-0.3-0.1-0.7,0.2-0.9l20.7-12c0.1-0.1,0.3-0.1,0.5-0.1c0.2,0.1,0.3,0.2,0.4,0.3l0.5,0.8C51.8,203.9,51.9,204,51.9,204z"/>
<path class="st0" d="M22.3,148.1c-0.1,0.3-0.3,0.5-0.6,0.5l-9.6,0c-0.2,0-0.3-0.1-0.5-0.2c-0.1-0.1-0.2-0.3-0.2-0.5l0-1
	c0-0.4,0.3-0.7,0.7-0.7l9.6,0c0.2,0,0.3,0.1,0.5,0.2c0.1,0.1,0.2,0.3,0.2,0.5l0,1C22.3,147.9,22.3,148.1,22.3,148.1z"/>
<path class="st0" d="M51.3,92.1c-0.2,0.2-0.5,0.2-0.8,0.1l-20.7-12c-0.1-0.1-0.3-0.2-0.3-0.4c0-0.2,0-0.4,0.1-0.5l0.5-0.8
	c0.2-0.3,0.6-0.4,0.9-0.2l20.7,12c0.1,0.1,0.3,0.2,0.3,0.4c0,0.2,0,0.4-0.1,0.5l-0.5,0.8C51.4,91.9,51.4,92,51.3,92.1z"/>
<path class="st0" d="M92.1,50.9c-0.3,0.1-0.6-0.1-0.7-0.3l-12-20.7c-0.1-0.1-0.1-0.3-0.1-0.5c0.1-0.2,0.2-0.3,0.3-0.4l0.8-0.5
	c0.3-0.2,0.7-0.1,0.9,0.2l12,20.7c0.1,0.1,0.1,0.3,0.1,0.5c-0.1,0.2-0.2,0.3-0.3,0.4l-0.8,0.5C92.3,50.8,92.2,50.8,92.1,50.9z"/>
<path class="st0" d="M161.7,21.2c-0.3-0.1-0.4-0.4-0.4-0.7l0.9-8.9c0-0.2,0.1-0.3,0.2-0.5c0.1-0.1,0.3-0.2,0.5-0.1l0.2,0
	c0.4,0,0.6,0.4,0.6,0.7l-0.9,8.9c0,0.2-0.1,0.3-0.2,0.5c-0.1,0.1-0.3,0.2-0.5,0.1l-0.2,0C161.9,21.3,161.8,21.3,161.7,21.2z"/>
<path class="st0" d="M174.9,23.3c-0.2-0.1-0.4-0.4-0.3-0.7l1.8-8.7c0-0.2,0.1-0.3,0.3-0.4c0.2-0.1,0.3-0.1,0.5-0.1l0.2,0
	c0.4,0.1,0.6,0.4,0.5,0.8l-1.8,8.7c0,0.2-0.1,0.3-0.3,0.4c-0.2,0.1-0.3,0.1-0.5,0.1l-0.2,0C175.1,23.4,174.9,23.3,174.9,23.3z"/>
<path class="st0" d="M187.7,26.7c-0.2-0.2-0.3-0.5-0.3-0.8l2.7-8.5c0.1-0.2,0.2-0.3,0.3-0.4c0.2-0.1,0.3-0.1,0.5,0l0.1,0
	c0.4,0.1,0.5,0.5,0.4,0.8l-2.7,8.5c-0.1,0.2-0.2,0.3-0.3,0.4c-0.2,0.1-0.3,0.1-0.5,0l-0.1,0C187.9,26.8,187.8,26.8,187.7,26.7z"/>
<path class="st0" d="M200.1,31.5c-0.2-0.2-0.3-0.5-0.2-0.8l3.6-8.1c0.1-0.2,0.2-0.3,0.4-0.4c0.2-0.1,0.3-0.1,0.5,0l0.1,0.1
	c0.3,0.2,0.5,0.6,0.3,0.9l-3.6,8.1c-0.1,0.2-0.2,0.3-0.4,0.4c-0.2,0.1-0.3,0.1-0.5,0l-0.1-0.1C200.3,31.6,200.2,31.5,200.1,31.5z"/>
<path class="st0" d="M223.1,44.7c-0.2-0.2-0.2-0.6,0-0.8l5.2-7.2c0.1-0.1,0.3-0.2,0.4-0.3c0.2,0,0.4,0,0.5,0.1l0.1,0.1
	c0.3,0.2,0.4,0.6,0.2,0.9l-5.2,7.2c-0.1,0.1-0.3,0.2-0.4,0.3c-0.2,0-0.4,0-0.5-0.1l-0.1-0.1C223.3,44.9,223.2,44.8,223.1,44.7z"/>
<path class="st0" d="M233.5,53.1c-0.1-0.2-0.1-0.6,0.1-0.8l6-6.6c0.1-0.1,0.3-0.2,0.5-0.2c0.2,0,0.4,0,0.5,0.2l0.1,0.1
	c0.3,0.3,0.3,0.7,0.1,0.9l-6,6.6c-0.1,0.1-0.3,0.2-0.5,0.2c-0.2,0-0.4,0-0.5-0.2l-0.1-0.1C233.6,53.2,233.5,53.1,233.5,53.1z"/>
<path class="st0" d="M242.9,62.5c-0.1-0.3-0.1-0.6,0.2-0.8l6.6-6c0.1-0.1,0.3-0.2,0.5-0.2c0.2,0,0.3,0.1,0.5,0.2l0.1,0.1
	c0.2,0.3,0.2,0.7,0,0.9l-6.6,6c-0.1,0.1-0.3,0.2-0.5,0.2c-0.2,0-0.3-0.1-0.5-0.2l-0.1-0.1C243,62.6,242.9,62.5,242.9,62.5z"/>
<path class="st0" d="M251.3,72.8c-0.1-0.3,0-0.6,0.2-0.8l7.2-5.2c0.1-0.1,0.3-0.1,0.5-0.1c0.2,0,0.3,0.1,0.4,0.3l0.1,0.1
	c0.2,0.3,0.1,0.7-0.1,0.9l-7.2,5.2c-0.1,0.1-0.3,0.1-0.5,0.1c-0.2,0-0.3-0.1-0.4-0.3l-0.1-0.1C251.4,73,251.3,72.9,251.3,72.8z"/>
<path class="st0" d="M264.6,95.8c0-0.3,0.1-0.6,0.4-0.7l8.1-3.6c0.2-0.1,0.3-0.1,0.5,0c0.2,0.1,0.3,0.2,0.4,0.4l0.1,0.1
	c0.1,0.3,0,0.7-0.3,0.9l-8.1,3.6c-0.2,0.1-0.3,0.1-0.5,0c-0.2-0.1-0.3-0.2-0.4-0.4l-0.1-0.1C264.6,96,264.6,95.8,264.6,95.8z"/>
<path class="st0" d="M269.3,108.2c0-0.3,0.2-0.6,0.5-0.6l8.5-2.8c0.2-0.1,0.4,0,0.5,0c0.2,0.1,0.3,0.2,0.3,0.4l0,0.1
	c0.1,0.4-0.1,0.7-0.4,0.8l-8.5,2.8c-0.2,0.1-0.4,0-0.5,0c-0.2-0.1-0.3-0.2-0.3-0.4l0-0.1C269.4,108.4,269.3,108.2,269.3,108.2z"/>
<path class="st0" d="M272.8,121c0-0.3,0.2-0.5,0.5-0.6l8.7-1.9c0.2,0,0.4,0,0.5,0.1c0.2,0.1,0.3,0.2,0.3,0.4l0,0.2
	c0.1,0.4-0.2,0.7-0.5,0.8l-8.7,1.9c-0.2,0-0.4,0-0.5-0.1c-0.1-0.1-0.3-0.2-0.3-0.4l0-0.1C272.8,121.2,272.8,121.1,272.8,121z"/>
<path class="st0" d="M274.9,134.2c0.1-0.3,0.3-0.5,0.6-0.5l8.9-0.9c0.2,0,0.4,0,0.5,0.1c0.1,0.1,0.2,0.3,0.2,0.5l0,0.2
	c0,0.4-0.2,0.7-0.6,0.7l-8.9,0.9c-0.2,0-0.4,0-0.5-0.1c-0.1-0.1-0.2-0.3-0.2-0.5l0-0.2C274.9,134.4,274.9,134.2,274.9,134.2z"/>
<path class="st0" d="M274.9,160.7c0.1-0.3,0.4-0.4,0.7-0.4l8.9,0.9c0.2,0,0.3,0.1,0.5,0.2c0.1,0.1,0.2,0.3,0.1,0.5l0,0.2
	c0,0.4-0.4,0.6-0.7,0.6l-8.9-0.9c-0.2,0-0.3-0.1-0.5-0.2c-0.1-0.1-0.2-0.3-0.1-0.5l0-0.2C274.9,160.9,274.9,160.8,274.9,160.7z"/>
<path class="st0" d="M272.9,173.8c0.1-0.2,0.4-0.4,0.7-0.3l8.7,1.8c0.2,0,0.3,0.1,0.4,0.3c0.1,0.2,0.1,0.3,0.1,0.5l0,0.2
	c-0.1,0.4-0.4,0.6-0.8,0.5l-8.7-1.8c-0.2,0-0.3-0.1-0.4-0.3c-0.1-0.2-0.1-0.3-0.1-0.5l0-0.2C272.8,174,272.8,173.9,272.9,173.8z"/>
<path class="st0" d="M269.4,186.7c0.2-0.2,0.5-0.3,0.8-0.3l8.5,2.7c0.2,0.1,0.3,0.2,0.4,0.3c0.1,0.2,0.1,0.3,0,0.5l0,0.1
	c-0.1,0.4-0.5,0.5-0.8,0.4l-8.5-2.7c-0.2-0.1-0.3-0.2-0.4-0.3c-0.1-0.2-0.1-0.3,0-0.5l0-0.1C269.3,186.9,269.4,186.7,269.4,186.7z"
	/>
<path class="st0" d="M264.7,199.1c0.2-0.2,0.5-0.3,0.8-0.2l8.1,3.6c0.2,0.1,0.3,0.2,0.4,0.4c0.1,0.2,0.1,0.3,0,0.5l-0.1,0.1
	c-0.2,0.3-0.6,0.5-0.9,0.3l-8.1-3.6c-0.2-0.1-0.3-0.2-0.4-0.4c-0.1-0.2-0.1-0.3,0-0.5l0.1-0.1C264.6,199.3,264.6,199.1,264.7,199.1z
	"/>
<path class="st0" d="M251.4,222.1c0.2-0.2,0.6-0.2,0.8,0l7.2,5.2c0.1,0.1,0.2,0.3,0.3,0.4c0,0.2,0,0.4-0.1,0.5l-0.1,0.1
	c-0.2,0.3-0.6,0.4-0.9,0.2l-7.2-5.2c-0.1-0.1-0.2-0.3-0.3-0.4c0-0.2,0-0.4,0.1-0.5l0.1-0.1C251.3,222.3,251.4,222.1,251.4,222.1z"/>
<path class="st0" d="M243.1,232.5c0.2-0.1,0.6-0.1,0.8,0.1l6.6,6c0.1,0.1,0.2,0.3,0.2,0.5c0,0.2,0,0.4-0.2,0.5l-0.1,0.1
	c-0.3,0.3-0.7,0.3-0.9,0.1l-6.6-6c-0.1-0.1-0.2-0.3-0.2-0.5c0-0.2,0-0.4,0.2-0.5l0.1-0.1C242.9,232.6,243,232.5,243.1,232.5z"/>
<path class="st0" d="M233.7,241.9c0.3-0.1,0.6-0.1,0.8,0.2l6,6.6c0.1,0.1,0.2,0.3,0.2,0.5c0,0.2-0.1,0.3-0.2,0.5l-0.1,0.1
	c-0.3,0.2-0.7,0.2-0.9,0l-6-6.6c-0.1-0.1-0.2-0.3-0.2-0.5c0-0.2,0.1-0.3,0.2-0.5l0.1-0.1C233.5,242,233.6,241.9,233.7,241.9z"/>
<path class="st0" d="M223.4,250.2c0.3-0.1,0.6,0,0.8,0.2l5.2,7.2c0.1,0.1,0.1,0.3,0.1,0.5c0,0.2-0.1,0.3-0.3,0.4l-0.1,0.1
	c-0.3,0.2-0.7,0.1-0.9-0.1l-5.2-7.2c-0.1-0.1-0.1-0.3-0.1-0.5c0-0.2,0.1-0.3,0.3-0.4l0.1-0.1C223.2,250.3,223.3,250.3,223.4,250.2z"
	/>
<path class="st0" d="M200.4,263.5c0.3,0,0.6,0.1,0.7,0.4l3.6,8.1c0.1,0.2,0.1,0.3,0,0.5c-0.1,0.2-0.2,0.3-0.4,0.4l-0.1,0.1
	c-0.3,0.1-0.7,0-0.9-0.3l-3.6-8.1c-0.1-0.2-0.1-0.3,0-0.5c0.1-0.2,0.2-0.3,0.4-0.4l0.1-0.1C200.2,263.6,200.3,263.6,200.4,263.5z"/>
<path class="st0" d="M188,268.3c0.3,0,0.6,0.2,0.6,0.5l2.8,8.5c0.1,0.2,0,0.4,0,0.5c-0.1,0.2-0.2,0.3-0.4,0.3l-0.1,0
	c-0.4,0.1-0.7-0.1-0.8-0.4l-2.8-8.5c-0.1-0.2,0-0.4,0-0.5c0.1-0.2,0.2-0.3,0.4-0.3l0.1,0C187.8,268.4,187.9,268.3,188,268.3z"/>
<path class="st0" d="M175.1,271.8c0.3,0,0.5,0.2,0.6,0.5l1.9,8.7c0,0.2,0,0.4-0.1,0.5c-0.1,0.2-0.2,0.3-0.4,0.3l-0.2,0
	c-0.4,0.1-0.7-0.2-0.8-0.5l-1.9-8.7c0-0.2,0-0.4,0.1-0.5c0.1-0.1,0.2-0.3,0.4-0.3l0.1,0C174.9,271.8,175.1,271.8,175.1,271.8z"/>
<path class="st0" d="M162,273.9c0.3,0.1,0.5,0.3,0.5,0.6l0.9,8.9c0,0.2,0,0.4-0.1,0.5c-0.1,0.1-0.3,0.2-0.5,0.2l-0.2,0
	c-0.4,0-0.7-0.2-0.7-0.6l-0.9-8.9c0-0.2,0-0.4,0.1-0.5c0.1-0.1,0.3-0.2,0.5-0.2l0.2,0C161.8,273.9,161.9,273.9,162,273.9z"/>
<path class="st0" d="M135.4,273.9c0.3,0.1,0.4,0.4,0.4,0.7l-0.9,8.9c0,0.2-0.1,0.3-0.2,0.5c-0.1,0.1-0.3,0.2-0.5,0.1l-0.2,0
	c-0.4,0-0.6-0.4-0.6-0.7l0.9-8.9c0-0.2,0.1-0.3,0.2-0.5c0.1-0.1,0.3-0.2,0.5-0.1l0.2,0C135.3,273.9,135.4,273.9,135.4,273.9z"/>
<path class="st0" d="M122.3,271.8c0.2,0.1,0.4,0.4,0.3,0.7l-1.8,8.7c0,0.2-0.1,0.3-0.3,0.4c-0.2,0.1-0.3,0.1-0.5,0.1l-0.2,0
	c-0.4-0.1-0.6-0.4-0.5-0.8l1.8-8.7c0-0.2,0.1-0.3,0.3-0.4c0.2-0.1,0.3-0.1,0.5-0.1l0.2,0C122.1,271.8,122.3,271.8,122.3,271.8z"/>
<path class="st0" d="M109.5,268.4c0.2,0.2,0.3,0.5,0.3,0.8l-2.7,8.5c-0.1,0.2-0.2,0.3-0.3,0.4c-0.2,0.1-0.3,0.1-0.5,0l-0.1,0
	c-0.4-0.1-0.5-0.5-0.4-0.8l2.7-8.5c0.1-0.2,0.2-0.3,0.3-0.4c0.2-0.1,0.3-0.1,0.5,0l0.1,0C109.3,268.3,109.4,268.4,109.5,268.4z"/>
<path class="st0" d="M97,263.7c0.2,0.2,0.3,0.5,0.2,0.8l-3.6,8.1c-0.1,0.2-0.2,0.3-0.4,0.4c-0.2,0.1-0.3,0.1-0.5,0l-0.1-0.1
	c-0.3-0.2-0.5-0.6-0.3-0.9l3.6-8.1c0.1-0.2,0.2-0.3,0.4-0.4c0.2-0.1,0.3-0.1,0.5,0l0.1,0.1C96.9,263.6,97,263.6,97,263.7z"/>
<path class="st0" d="M74,250.4c0.2,0.2,0.2,0.6,0,0.8l-5.2,7.2c-0.1,0.1-0.3,0.2-0.4,0.3c-0.2,0-0.4,0-0.5-0.1l-0.1-0.1
	c-0.3-0.2-0.4-0.6-0.2-0.9l5.2-7.2c0.1-0.1,0.3-0.2,0.4-0.3c0.2,0,0.4,0,0.5,0.1l0.1,0.1C73.9,250.3,74,250.4,74,250.4z"/>
<path class="st0" d="M63.7,242.1c0.1,0.2,0.1,0.6-0.1,0.8l-6,6.6c-0.1,0.1-0.3,0.2-0.5,0.2c-0.2,0-0.4,0-0.5-0.2l-0.1-0.1
	c-0.3-0.3-0.3-0.7-0.1-0.9l6-6.6c0.1-0.1,0.3-0.2,0.5-0.2c0.2,0,0.4,0,0.5,0.2l0.1,0.1C63.6,241.9,63.7,242,63.7,242.1z"/>
<path class="st0" d="M54.3,232.7c0.1,0.3,0.1,0.6-0.2,0.8l-6.6,6c-0.1,0.1-0.3,0.2-0.5,0.2c-0.2,0-0.3-0.1-0.5-0.2l-0.1-0.1
	c-0.2-0.3-0.2-0.7,0-0.9l6.6-6c0.1-0.1,0.3-0.2,0.5-0.2c0.2,0,0.3,0.1,0.5,0.2l0.1,0.1C54.2,232.5,54.3,232.6,54.3,232.7z"/>
<path class="st0" d="M45.9,222.3c0.1,0.3,0,0.6-0.2,0.8l-7.2,5.2c-0.1,0.1-0.3,0.1-0.5,0.1c-0.2,0-0.3-0.1-0.4-0.3l-0.1-0.1
	c-0.2-0.3-0.1-0.7,0.1-0.9l7.2-5.2c0.1-0.1,0.3-0.1,0.5-0.1c0.2,0,0.3,0.1,0.4,0.3l0.1,0.1C45.8,222.2,45.9,222.3,45.9,222.3z"/>
<path class="st0" d="M32.6,199.4c0,0.3-0.1,0.6-0.4,0.7l-8.1,3.6c-0.2,0.1-0.3,0.1-0.5,0c-0.2-0.1-0.3-0.2-0.4-0.4l-0.1-0.1
	c-0.1-0.3,0-0.7,0.3-0.9l8.1-3.6c0.2-0.1,0.3-0.1,0.5,0c0.2,0.1,0.3,0.2,0.4,0.4l0.1,0.1C32.6,199.2,32.6,199.3,32.6,199.4z"/>
<path class="st0" d="M27.8,186.9c0,0.3-0.2,0.6-0.5,0.6l-8.5,2.8c-0.2,0.1-0.4,0-0.5,0c-0.2-0.1-0.3-0.2-0.3-0.4l0-0.1
	c-0.1-0.4,0.1-0.7,0.4-0.8l8.5-2.8c0.2-0.1,0.4,0,0.5,0c0.2,0.1,0.3,0.2,0.3,0.4l0,0.1C27.8,186.8,27.8,186.9,27.8,186.9z"/>
<path class="st0" d="M24.4,174.1c0,0.3-0.2,0.5-0.5,0.6l-8.7,1.9c-0.2,0-0.4,0-0.5-0.1c-0.2-0.1-0.3-0.2-0.3-0.4l0-0.2
	c-0.1-0.4,0.2-0.7,0.5-0.8l8.7-1.9c0.2,0,0.4,0,0.5,0.1c0.1,0.1,0.3,0.2,0.3,0.4l0,0.1C24.4,173.9,24.4,174.1,24.4,174.1z"/>
<path class="st0" d="M22.3,161c-0.1,0.3-0.3,0.5-0.6,0.5l-8.9,0.9c-0.2,0-0.4,0-0.5-0.1c-0.1-0.1-0.2-0.3-0.2-0.5l0-0.2
	c0-0.4,0.2-0.7,0.6-0.7l8.9-0.9c0.2,0,0.4,0,0.5,0.1c0.1,0.1,0.2,0.3,0.2,0.5l0,0.2C22.3,160.8,22.3,160.9,22.3,161z"/>
<path class="st0" d="M22.3,134.4c-0.1,0.3-0.4,0.4-0.7,0.4l-8.9-0.9c-0.2,0-0.3-0.1-0.5-0.2c-0.1-0.1-0.2-0.3-0.1-0.5l0-0.2
	c0-0.4,0.4-0.6,0.7-0.6l8.9,0.9c0.2,0,0.3,0.1,0.5,0.2c0.1,0.1,0.2,0.3,0.1,0.5l0,0.2C22.3,134.2,22.3,134.4,22.3,134.4z"/>
<path class="st0" d="M24.3,121.3c-0.1,0.2-0.4,0.4-0.7,0.3l-8.7-1.8c-0.2,0-0.3-0.1-0.4-0.3c-0.1-0.2-0.1-0.3-0.1-0.5l0-0.2
	c0.1-0.4,0.4-0.6,0.8-0.5l8.7,1.8c0.2,0,0.3,0.1,0.4,0.3c0.1,0.2,0.1,0.3,0.1,0.5l0,0.2C24.4,121.1,24.3,121.2,24.3,121.3z"/>
<path class="st0" d="M27.7,108.4c-0.2,0.2-0.5,0.3-0.8,0.3l-8.5-2.7c-0.2-0.1-0.3-0.2-0.4-0.3c-0.1-0.2-0.1-0.3,0-0.5l0-0.1
	c0.1-0.4,0.5-0.5,0.8-0.4l8.5,2.7c0.2,0.1,0.3,0.2,0.4,0.3c0.1,0.2,0.1,0.3,0,0.5l0,0.1C27.8,108.3,27.8,108.4,27.7,108.4z"/>
<path class="st0" d="M32.5,96c-0.2,0.2-0.5,0.3-0.8,0.2l-8.1-3.6c-0.2-0.1-0.3-0.2-0.4-0.4c-0.1-0.2-0.1-0.3,0-0.5l0.1-0.1
	c0.2-0.3,0.6-0.5,0.9-0.3l8.1,3.6c0.2,0.1,0.3,0.2,0.4,0.4c0.1,0.2,0.1,0.3,0,0.5l-0.1,0.1C32.6,95.9,32.5,96,32.5,96z"/>
<path class="st0" d="M45.7,73c-0.2,0.2-0.6,0.2-0.8,0l-7.2-5.2c-0.1-0.1-0.2-0.3-0.3-0.4c0-0.2,0-0.4,0.1-0.5l0.1-0.1
	c0.2-0.3,0.6-0.4,0.9-0.2l7.2,5.2c0.1,0.1,0.2,0.3,0.3,0.4c0,0.2,0,0.4-0.1,0.5l-0.1,0.1C45.9,72.9,45.8,73,45.7,73z"/>
<path class="st0" d="M54.1,62.7c-0.2,0.1-0.6,0.1-0.8-0.1l-6.6-6c-0.1-0.1-0.2-0.3-0.2-0.5c0-0.2,0-0.4,0.2-0.5l0.1-0.1
	c0.3-0.3,0.7-0.3,0.9-0.1l6.6,6c0.1,0.1,0.2,0.3,0.2,0.5c0,0.2,0,0.4-0.2,0.5l-0.1,0.1C54.3,62.6,54.2,62.7,54.1,62.7z"/>
<path class="st0" d="M63.5,53.3c-0.3,0.1-0.6,0.1-0.8-0.2l-6-6.6c-0.1-0.1-0.2-0.3-0.2-0.5c0-0.2,0.1-0.3,0.2-0.5l0.1-0.1
	c0.3-0.2,0.7-0.2,0.9,0l6,6.6c0.1,0.1,0.2,0.3,0.2,0.5c0,0.2-0.1,0.3-0.2,0.5l-0.1,0.1C63.7,53.2,63.5,53.2,63.5,53.3z"/>
<path class="st0" d="M73.8,44.9c-0.3,0.1-0.6,0-0.8-0.2l-5.2-7.2c-0.1-0.1-0.1-0.3-0.1-0.5c0-0.2,0.1-0.3,0.3-0.4l0.1-0.1
	c0.3-0.2,0.7-0.1,0.9,0.1l5.2,7.2c0.1,0.1,0.1,0.3,0.1,0.5c0,0.2-0.1,0.3-0.3,0.4L74,44.8C74,44.8,73.9,44.9,73.8,44.9z"/>
<path class="st0" d="M96.8,31.6c-0.3,0-0.6-0.1-0.7-0.4l-3.6-8.1c-0.1-0.2-0.1-0.3,0-0.5c0.1-0.2,0.2-0.3,0.4-0.4l0.1-0.1
	c0.3-0.1,0.7,0,0.9,0.3l3.6,8.1c0.1,0.2,0.1,0.3,0,0.5c-0.1,0.2-0.2,0.3-0.4,0.4L97,31.5C97,31.5,96.9,31.6,96.8,31.6z"/>
<path class="st0" d="M109.2,26.8c-0.3,0-0.6-0.2-0.6-0.5l-2.8-8.5c-0.1-0.2,0-0.4,0-0.5c0.1-0.2,0.2-0.3,0.4-0.3l0.1,0
	c0.4-0.1,0.7,0.1,0.8,0.4l2.8,8.5c0.1,0.2,0,0.4,0,0.5c-0.1,0.2-0.2,0.3-0.4,0.3l-0.1,0C109.4,26.8,109.3,26.8,109.2,26.8z"/>
<path class="st0" d="M122,23.4c-0.3,0-0.5-0.2-0.6-0.5l-1.9-8.7c0-0.2,0-0.4,0.1-0.5c0.1-0.2,0.2-0.3,0.4-0.3l0.2,0
	c0.4-0.1,0.7,0.2,0.8,0.5l1.9,8.7c0,0.2,0,0.4-0.1,0.5c-0.1,0.1-0.2,0.3-0.4,0.3l-0.1,0C122.2,23.3,122.1,23.4,122,23.4z"/>
<path class="st0" d="M135.2,21.3c-0.3-0.1-0.5-0.3-0.5-0.6l-0.9-8.9c0-0.2,0-0.4,0.1-0.5c0.1-0.1,0.3-0.2,0.5-0.2l0.2,0
	c0.4,0,0.7,0.2,0.7,0.6l0.9,8.9c0,0.2,0,0.4-0.1,0.5c-0.1,0.1-0.3,0.2-0.5,0.2l-0.2,0C135.4,21.3,135.2,21.3,135.2,21.3z"/>
<g>
	<path class="st0" d="M145.3,32.7c0.6,0.3,1,0.7,1.4,1.3c0.3,0.5,0.5,1.1,0.5,1.7c0,0.6-0.2,1.2-0.5,1.8c-0.3,0.5-0.8,1-1.4,1.3
		c-0.6,0.3-1.3,0.5-2,0.5s-1.4-0.2-2-0.5c-0.6-0.3-1.1-0.7-1.4-1.3c-0.3-0.5-0.5-1.1-0.5-1.8c0-0.4,0.1-0.8,0.2-1.2
		c0.2-0.4,0.4-0.8,0.6-1.1l3.3-4.9h1.6l-2.7,3.9c0.3-0.1,0.6-0.1,1-0.1C144.1,32.3,144.8,32.4,145.3,32.7z M144.6,37.7
		c0.4-0.2,0.7-0.5,0.9-0.8s0.3-0.7,0.3-1.1c0-0.4-0.1-0.8-0.3-1.1c-0.2-0.3-0.5-0.6-0.9-0.8c-0.4-0.2-0.8-0.3-1.3-0.3
		c-0.5,0-0.9,0.1-1.3,0.3c-0.4,0.2-0.7,0.5-0.9,0.8c-0.2,0.3-0.3,0.7-0.3,1.1c0,0.4,0.1,0.8,0.3,1.1s0.5,0.6,0.9,0.8
		c0.4,0.2,0.8,0.3,1.3,0.3C143.8,38,144.2,37.9,144.6,37.7z"/>
	<path class="st0" d="M151.1,38.6c-0.7-0.4-1.3-1.1-1.7-1.9c-0.4-0.8-0.6-1.8-0.6-2.9s0.2-2.1,0.6-2.9c0.4-0.8,1-1.4,1.7-1.9
		s1.5-0.6,2.3-0.6s1.6,0.2,2.3,0.6s1.2,1.1,1.7,1.9c0.4,0.8,0.6,1.8,0.6,2.9s-0.2,2.1-0.6,2.9c-0.4,0.8-1,1.4-1.7,1.9
		c-0.7,0.4-1.5,0.6-2.3,0.6S151.8,39,151.1,38.6z M154.9,37.5c0.5-0.3,0.9-0.8,1.1-1.4c0.3-0.6,0.4-1.4,0.4-2.3s-0.1-1.6-0.4-2.3
		c-0.3-0.6-0.7-1.1-1.1-1.4c-0.5-0.3-1-0.5-1.5-0.5c-0.6,0-1.1,0.2-1.5,0.5c-0.5,0.3-0.9,0.8-1.1,1.4s-0.4,1.4-0.4,2.3
		s0.1,1.6,0.4,2.3c0.3,0.6,0.7,1.1,1.1,1.4c0.5,0.3,1,0.5,1.5,0.5C153.9,38,154.4,37.8,154.9,37.5z"/>
</g>
<g>
	<path class="st0" d="M256.5,144.7c-0.5,0.4-1.3,0.6-2.2,0.6v-1c1.2-0.1,2-0.5,2.5-1.5h1.1v10.5h-1.5V144.7z"/>
	<path class="st0" d="M261.9,153c-0.7-0.3-1.2-0.7-1.5-1.1l1-0.9c0.2,0.3,0.6,0.6,1.1,0.9c0.5,0.3,1.1,0.4,1.7,0.4
		c0.8,0,1.4-0.2,1.9-0.6s0.7-1,0.7-1.6c0-0.7-0.2-1.2-0.7-1.6c-0.5-0.4-1.1-0.6-1.8-0.6c-0.5,0-1,0.1-1.4,0.4
		c-0.4,0.2-0.7,0.5-0.9,0.8l-1.1-0.1l0.4-6h6.1v1.3h-4.9l-0.2,3c0.2-0.2,0.5-0.3,0.9-0.4s0.8-0.2,1.2-0.2c0.7,0,1.3,0.2,1.9,0.5
		c0.6,0.3,1,0.7,1.3,1.2c0.3,0.5,0.5,1.1,0.5,1.8c0,0.7-0.2,1.3-0.5,1.8s-0.8,0.9-1.4,1.2c-0.6,0.3-1.3,0.5-2.1,0.5
		C263.4,153.5,262.6,153.3,261.9,153z"/>
</g>
<g>
	<path class="st0" d="M140.7,267c-0.7-0.3-1.2-0.7-1.5-1.1l1-0.9c0.2,0.3,0.6,0.6,1.1,0.9c0.5,0.3,1.1,0.4,1.7,0.4
		c0.8,0,1.4-0.2,1.8-0.5c0.4-0.4,0.7-0.8,0.7-1.4c0-0.5-0.2-1-0.7-1.3c-0.4-0.4-1-0.5-1.8-0.5h-1.2v-1.3h1.2c0.6,0,1.1-0.2,1.5-0.5
		c0.4-0.3,0.6-0.7,0.6-1.2c0-0.5-0.2-0.9-0.6-1.2c-0.4-0.3-0.9-0.5-1.5-0.5c-0.5,0-1,0.1-1.5,0.3c-0.5,0.2-0.8,0.5-1,0.8l-1-0.9
		c0.3-0.4,0.8-0.7,1.4-1c0.6-0.3,1.3-0.4,2.1-0.4c0.7,0,1.3,0.1,1.9,0.4c0.5,0.2,0.9,0.6,1.2,1c0.3,0.4,0.4,0.9,0.4,1.4
		c0,0.6-0.2,1.1-0.5,1.5s-0.8,0.7-1.2,0.8c0.5,0.2,1,0.5,1.5,0.9c0.4,0.5,0.7,1,0.7,1.7c0,0.6-0.2,1.1-0.5,1.6
		c-0.3,0.5-0.8,0.8-1.4,1.1c-0.6,0.3-1.3,0.4-2.1,0.4C142.2,267.4,141.4,267.3,140.7,267z"/>
	<path class="st0" d="M150.9,266.8c-0.7-0.4-1.3-1.1-1.7-1.9c-0.4-0.8-0.6-1.8-0.6-2.9c0-1.1,0.2-2.1,0.6-2.9c0.4-0.8,1-1.4,1.7-1.9
		c0.7-0.4,1.5-0.6,2.3-0.6s1.6,0.2,2.3,0.6c0.7,0.4,1.2,1.1,1.7,1.9c0.4,0.8,0.6,1.8,0.6,2.9c0,1.1-0.2,2.1-0.6,2.9
		c-0.4,0.8-1,1.4-1.7,1.9c-0.7,0.4-1.5,0.6-2.3,0.6S151.6,267.2,150.9,266.8z M154.8,265.7c0.5-0.3,0.9-0.8,1.1-1.4
		c0.3-0.6,0.4-1.4,0.4-2.3s-0.1-1.6-0.4-2.3c-0.3-0.6-0.7-1.1-1.1-1.4c-0.5-0.3-1-0.5-1.5-0.5c-0.6,0-1.1,0.2-1.5,0.5
		s-0.9,0.8-1.1,1.4s-0.4,1.4-0.4,2.3s0.1,1.6,0.4,2.3s0.7,1.1,1.1,1.4c0.5,0.3,1,0.5,1.5,0.5C153.8,266.2,154.3,266,154.8,265.7z"/>
</g>
<g>
	<path class="st0" d="M38.6,152.2h-1.4V150h-5.5v-1.5l5.2-6.8h1.7v7h1.5v1.2h-1.5V152.2z M37.2,143.4l-4.1,5.4h4.1L37.2,143.4
		L37.2,143.4z"/>
	<path class="st0" d="M42.9,151.9c-0.7-0.3-1.2-0.7-1.5-1.1l1-0.9c0.2,0.3,0.6,0.6,1.1,0.9c0.5,0.3,1.1,0.4,1.7,0.4
		c0.8,0,1.4-0.2,1.9-0.6s0.7-1,0.7-1.6c0-0.7-0.2-1.2-0.7-1.6c-0.5-0.4-1.1-0.6-1.8-0.6c-0.5,0-1,0.1-1.4,0.4s-0.7,0.5-0.9,0.8
		l-1.1-0.1l0.4-6h6.1v1.3h-4.9l-0.2,3c0.2-0.2,0.5-0.3,0.9-0.4s0.8-0.2,1.2-0.2c0.7,0,1.3,0.2,1.9,0.5c0.6,0.3,1,0.7,1.3,1.2
		c0.3,0.5,0.5,1.1,0.5,1.8c0,0.7-0.2,1.3-0.5,1.8s-0.8,0.9-1.4,1.2c-0.6,0.3-1.3,0.5-2.1,0.5C44.3,152.4,43.6,152.2,42.9,151.9z"/>
</g>
</svg>
